/* XPM */
static char *_0eddeb5a0e84617ff267129f8656199JHz6EnU72d3ejsTp[] = {
/* columns rows colors chars-per-pixel */
"100 100 26 1 ",
"  c #282828",
". c #2D2D2D",
"X c gray20",
"o c #3A3A3A",
"O c gray23",
"+ c #434343",
"@ c gray27",
"# c gray29",
"$ c gray30",
"% c #535353",
"& c #5D5D5D",
"* c #626262",
"= c #656565",
"- c gray42",
"; c gray48",
": c gray49",
"> c red",
", c #818181",
"< c #868686",
"1 c #8B8B8B",
"2 c gray56",
"3 c #A3A2A2",
"4 c #CDC7B7",
"5 c #E4DDCB",
"6 c #E6E6E6",
"7 c white",
/* pixels */
"5555555555555555555555555555555555555555555555555555555555555555555555555555555555555555555555555555",
"5&&&&&&&&&&&&&&&&&&&&&&&&&&&&&&&&&&&&&&&&&&&&&&&&557777777777777777777777777777777777777777777777775",
"5&&&&&&&&&&&&&&&&&&&&&&&&&&&&&&&&&&&&&&&&&&&&&&&&557777777777777777777777777777777777777777777777775",
"5&&&&&&&&&&&&&&&&&&&&&&&&&&&&&&&&&&&&&&&%%%%%%%%%446666666667777777777777777777777777777777777777775",
"5&&&&&&&&&&&&&&&&&&&&&&&&&&&&&&&&&&&%%%%%%%%%%%%%446666666666666777777777777777777777777777777777775",
"5&&&&&&&&&&&&&&&&&&&&&&&&&&&&&&&&%%%%%%%%                  66666666777777777777777777777777777777775",
"5&&&&&&&&&&&&&&&&&&&&&&&&&&&&&&%%%%%%                          6666667777777777777777777777777777775",
"5&&&&&&&&&&&&&&&&&&&&&&&&&&&&%%%%%                                6666677777777777777777777777777775",
"5&&&&&&&&&&&&&&&&&&&&&&&&&&%%%%             333333333333             6666777777777777777777777777775",
"5&&&&&&&&&&&&&&&&&&&&&&&&%%%%          3333333333333333333333          66667777777777777777777777775",
"5&&&&&&&&&&&&&&&&&&&&&&%%%%         33333                  33333         666677777777777777777777775",
"5&&&&&&&&&&&&&&&&&&&&&%%%%       3333                          3333       66667777777777777777777775",
"5&&&&&&&&&&&&&&&&&&&&%%%       3333                              3333       666777777777777777777775",
"5&&&&&&&&&&&&&&&&&&%%%%      333                                    333      66667777777777777777775",
"5&&&&&&&&&&&&&&&&&%%%      333                                        333      666777777777777777775",
"5&&&&&&&&&&&&&&&&%%%      333                                          333      66677777777777777775",
"5&&&&&&&&&&&&&&&%%%      33                                              33      6667777777777777775",
"5&&&&&&&&&&&&&&%%%     333                                                333     666777777777777775",
"5&&&&&&&&&&&&&%%%     33                                                    33     66677777777777775",
"5&&&&&&&&&&&&%%%     33                                                      33     6667777777777775",
"5&&&&&&&&&&&&%%     33                                                        33     667777777777775",
"5&&&&&&&&&&&%%     33                                                          33     66777777777775",
"5&&&&&&&&&&%%%    33                                                            33    66677777777775",
"5&&&&&&&&&%%%    33      .$o   %                                                 33    6667777777775",
"5&&&&&&&&&%%     3       :21%  2                                                  3     667777777775",
"5&&&&&&&&%%%    33       2=&<$ 2                                         OOOO     33    666777777775",
"5&&&&&&&&%%    33        2. +<*2                                         O  OO     33    66777777775",
"5&&&&&&&%%    33         ;;  @12                                         O   OO     33    6677777775",
"5&&&&&&&%%    33          @   X%                                         O    O     33    6677777775",
"5&&&&&&%%    33              %                                           O    O      33    667777775",
"5&&&&&&%%    3           ----2--                                         O    o       3    667777775",
"5&&&&&%%    33           2222222                                         O    o       33    66777775",
"5&&&&&%%    3            &;o 2                                           O    O        3    66777775",
"5&&&&%%%   33             +;#2                                           O    O        33   66677775",
"5&&&&%%    33               -2                                           O    O        33    6677775",
"5&&&&%%    3                  %%                                         O    O         3    6677775",
"5&&&%%%   33                  22                                         O    O         33   6667775",
"5&&&%%    3               --  %%              33333333                   O    O          3    667775",
"5&&&%%    3               12               33333333333333                O    O          3    667775",
"5&&&%%   33               -1=$%%          3333        3333               O    O          33   667775",
"5&&%%%   33               222222         333            333              O    O          33   666775",
"5&&%%    3  333333        %%%%%%        333              333             O    O           3    66775",
"5&&%%    3  333333         .$%@        333                333            O    O           3    66775",
"5&&%%    3      33         :22;;      333                  333           O    O           3    66775",
"5&&%%   33      33         2&2 2      33                    33           O    O           33   66775",
"5&&%%   33      33         2*2*2      33                    33           O    O           33   66775",
"5&&%%   33      33         :222:     33      33              33          O    O           33   66775",
"5&&%%   33      33         .$%%.     33     3>>3             33          O    O           33   66775",
"5&&%%   33      33         .$%%%     33    3>>>>3            33          O    O           33   66775",
"55544   33      33         :2222     33   3>>>>>>3           33          O    O           33   44555",
"55544   33      33         2*%%%     33   3>>>>>>3           33          O    O           33   44555",
"57766   33      33         ,*$%%     33    3>>>>3            33          O    O           33   %%&&5",
"57766   33      33         22222     33     3>>3             33          O    O           33   %%&&5",
"57766   33      33         %%%%$     33      33              33          O    O           33   %%&&5",
"57766   33      33         X$%%%      33                    33           O    O           33   %%&&5",
"57766   33      33         :2222      33                    33           O    O           33   %%&&5",
"57766    3      33         2=2&,      333                  333           O    O           3    %%&&5",
"57766    3  333333         2.2-2       333                333            O    O           3    %%&&5",
"57766    3  333333         ;::2:        333              333             O    O           3    %%&&5",
"577666   33                 @.#.         333            333              O    O          33   %%%&&5",
"577766   33                .$%@           3333        3333               O    O          33   %%&&&5",
"577766    3                :22;;           33333333333333                O    O          3    %%&&&5",
"577766    3                2*2.2              33333333                   O    o          3    %%&&&5",
"5777666   33               2&2&2                                         O    o         33   %%%&&&5",
"5777766    3               :222:                                         O    O         3    %%&&&&5",
"5777766    33               %%%.                                         O    O        33    %%&&&&5",
"57777666   33            %%%$%%%                                         O    O        33   %%%&&&&5",
"57777766    3            2222222                                         O    O        3    %%&&&&&5",
"57777766    33           %%%%%%%                                         O    O       33    %%&&&&&5",
"577777766    3           .@   #                                          O    O       3    %%&&&&&&5",
"577777766    33          ;:   ;:                                         O    O      33    %%&&&&&&5",
"5777777766    33         2    .2                                         O    O     33    %%&&&&&&&5",
"5777777766    33         2=%%%*2                                         o    O     33    %%&&&&&&&5",
"57777777766    33        :22222;                                         o   OO    33    %%&&&&&&&&5",
"577777777666    33       .$%%%$.                                         O  OO    33    %%%&&&&&&&&5",
"577777777766     3                                                       OOoO     3     %%&&&&&&&&&5",
"5777777777666    33                                                              33    %%%&&&&&&&&&5",
"57777777777666    33                                                            33    %%%&&&&&&&&&&5",
"57777777777766     33                                                          33     %%&&&&&&&&&&&5",
"577777777777766     33                                                        33     %%&&&&&&&&&&&&5",
"5777777777777666     33                                                      33     %%%&&&&&&&&&&&&5",
"57777777777777666     33                                                    33     %%%&&&&&&&&&&&&&5",
"577777777777777666     333                                                333     %%%&&&&&&&&&&&&&&5",
"5777777777777777666      33                                              33      %%%&&&&&&&&&&&&&&&5",
"57777777777777777666      333                                          333      %%%&&&&&&&&&&&&&&&&5",
"577777777777777777666      333                                        333      %%%&&&&&&&&&&&&&&&&&5",
"57777777777777777776666      333                                    333      %%%%&&&&&&&&&&&&&&&&&&5",
"577777777777777777777666       3333                              3333       %%%&&&&&&&&&&&&&&&&&&&&5",
"57777777777777777777776666       3333                          3333       %%%%&&&&&&&&&&&&&&&&&&&&&5",
"577777777777777777777776666         33333                  33333         %%%%&&&&&&&&&&&&&&&&&&&&&&5",
"57777777777777777777777776666          3333333333333333333333          %%%%&&&&&&&&&&&&&&&&&&&&&&&&5",
"5777777777777777777777777776666             333333333333             %%%%&&&&&&&&&&&&&&&&&&&&&&&&&&5",
"5777777777777777777777777777766666                                %%%%%&&&&&&&&&&&&&&&&&&&&&&&&&&&&5",
"5777777777777777777777777777777666666                          %%%%%%&&&&&&&&&&&&&&&&&&&&&&&&&&&&&&5",
"57777777777777777777777777777777766666666                  %%%%%%%%&&&&&&&&&&&&&&&&&&&&&&&&&&&&&&&&5",
"577777777777777777777777777777777777666666666666644%%%%%%%%%%%%%&&&&&&&&&&&&&&&&&&&&&&&&&&&&&&&&&&&5",
"577777777777777777777777777777777777777766666666644%%%%%%%%%&&&&&&&&&&&&&&&&&&&&&&&&&&&&&&&&&&&&&&&5",
"577777777777777777777777777777777777777777777777755&&&&&&&&&&&&&&&&&&&&&&&&&&&&&&&&&&&&&&&&&&&&&&&&5",
"577777777777777777777777777777777777777777777777755&&&&&&&&&&&&&&&&&&&&&&&&&&&&&&&&&&&&&&&&&&&&&&&&5",
"5555555555555555555555555555555555555555555555555555555555555555555555555555555555555555555555555555"
};
