/* XPM */
static char *e1e0bbaebbac4daaf49aaf537f8fa3ad9Mh3cDQ7iISwcerU[] = {
/* columns rows colors chars-per-pixel */
"100 100 4 1 ",
"  c #5D5D5D",
". c red",
"X c #E4DDCB",
"o c white",
/* pixels */
"XXXXXXXXXXXXXXXXXXXXXXXXXXXXXXXXXXXXXXXXXXXXXXXXXXXXXXXXXXXXXXXXXXXXXXXXXXXXXXXXXXXXXXXXXXXXXXXXXXXX",
"X                                                XXooooooooooooooooooooooooooooooooooooooooooooooooX",
"X                                                XXooooooooooooooooooooooooooooooooooooooooooooooooX",
"X                                                XXooooooooooooooooooooooooooooooooooooooooooooooooX",
"X                                                XXooooooooooooooooooooooooooooooooooooooooooooooooX",
"X                                                XXooooooooooooooooooooooooooooooooooooooooooooooooX",
"X                                                XXooooooooooooooooooooooooooooooooooooooooooooooooX",
"X                                                XXooooooooooooooooooooooooooooooooooooooooooooooooX",
"X                                                XXooooooooooooooooooooooooooooooooooooooooooooooooX",
"X                                                XXooooooooooooooooooooooooooooooooooooooooooooooooX",
"X                                                XXooooooooooooooooooooooooooooooooooooooooooooooooX",
"X                                                XXooooooooooooooooooooooooooooooooooooooooooooooooX",
"X                                                XXooooooooooooooooooooooooooooooooooooooooooooooooX",
"X                                                XXooooooooooooooooooooooooooooooooooooooooooooooooX",
"X                                                XXooooooooooooooooooooooooooooooooooooooooooooooooX",
"X                                                XXooooooooooooooooooooooooooooooooooooooooooooooooX",
"X                                                XXooooooooooooooooooooooooooooooooooooooooooooooooX",
"X                                                XXooooooooooooooooooooooooooooooooooooooooooooooooX",
"X                                                XXooooooooooooooooooooooooooooooooooooooooooooooooX",
"X                                                XXooooooooooooooooooooooooooooooooooooooooooooooooX",
"X                                                XXooooooooooooooooooooooooooooooooooooooooooooooooX",
"X                                                XXooooooooooooooooooooooooooooooooooooooooooooooooX",
"X                                                XXooooooooooooooooooooooooooooooooooooooooooooooooX",
"X                                                XXooooooooooooooooooooooooooooooooooooooooooooooooX",
"X                                                XXooooooooooooooooooooooooooooooooooooooooooooooooX",
"X                                                XXooooooooooooooooooooooooooooooooooooooooooooooooX",
"X                                                XXooooooooooooooooooooooooooooooooooooooooooooooooX",
"X                                                XXooooooooooooooooooooooooooooooooooooooooooooooooX",
"X                                                XXooooooooooooooooooooooooooooooooooooooooooooooooX",
"X                                                XXooooooooooooooooooooooooooooooooooooooooooooooooX",
"X                                                XXooooooooooooooooooooooooooooooooooooooooooooooooX",
"X                                                XXooooooooooooooooooooooooooooooooooooooooooooooooX",
"X                                                XXooooooooooooooooooooooooooooooooooooooooooooooooX",
"X                                                XXooooooooooooooooooooooooooooooooooooooooooooooooX",
"X                                                XXooooooooooooooooooooooooooooooooooooooooooooooooX",
"X                                  ..............................ooooooooooooooooooooooooooooooooooX",
"X                                  ..............................ooooooooooooooooooooooooooooooooooX",
"X                                  ..............................ooooooooooooooooooooooooooooooooooX",
"X                                  ..............................ooooooooooooooooooooooooooooooooooX",
"X                                  ..............................ooooooooooooooooooooooooooooooooooX",
"X                                  ..............................ooooooooooooooooooooooooooooooooooX",
"X                                  ..............................ooooooooooooooooooooooooooooooooooX",
"X                                  ..............................ooooooooooooooooooooooooooooooooooX",
"X                                  ..............................ooooooooooooooooooooooooooooooooooX",
"X                                  ..............................ooooooooooooooooooooooooooooooooooX",
"X                                  ..............................ooooooooooooooooooooooooooooooooooX",
"X                                  ..............................ooooooooooooooooooooooooooooooooooX",
"X                                  ..............................ooooooooooooooooooooooooooooooooooX",
"X                                  ..............................ooooooooooooooooooooooooooooooooooX",
"XXXXXXXXXXXXXXXXXXXXXXXXXXXXXXXXXXX..............................XXXXXXXXXXXXXXXXXXXXXXXXXXXXXXXXXXX",
"XXXXXXXXXXXXXXXXXXXXXXXXXXXXXXXXXXX..............................XXXXXXXXXXXXXXXXXXXXXXXXXXXXXXXXXXX",
"Xoooooooooooooooooooooooooooooooooo..............................                                  X",
"Xoooooooooooooooooooooooooooooooooo..............................                                  X",
"Xoooooooooooooooooooooooooooooooooo..............................                                  X",
"Xoooooooooooooooooooooooooooooooooo..............................                                  X",
"Xoooooooooooooooooooooooooooooooooo..............................                                  X",
"Xoooooooooooooooooooooooooooooooooo..............................                                  X",
"Xoooooooooooooooooooooooooooooooooo..............................                                  X",
"Xoooooooooooooooooooooooooooooooooo..............................                                  X",
"Xoooooooooooooooooooooooooooooooooo..............................                                  X",
"Xoooooooooooooooooooooooooooooooooo..............................                                  X",
"Xoooooooooooooooooooooooooooooooooo..............................                                  X",
"Xoooooooooooooooooooooooooooooooooo..............................                                  X",
"Xoooooooooooooooooooooooooooooooooo..............................                                  X",
"Xoooooooooooooooooooooooooooooooooo..............................                                  X",
"XooooooooooooooooooooooooooooooooooooooooooooooooXX                                                X",
"XooooooooooooooooooooooooooooooooooooooooooooooooXX                                                X",
"XooooooooooooooooooooooooooooooooooooooooooooooooXX                                                X",
"XooooooooooooooooooooooooooooooooooooooooooooooooXX                                                X",
"XooooooooooooooooooooooooooooooooooooooooooooooooXX                                                X",
"XooooooooooooooooooooooooooooooooooooooooooooooooXX                                                X",
"XooooooooooooooooooooooooooooooooooooooooooooooooXX                                                X",
"XooooooooooooooooooooooooooooooooooooooooooooooooXX                                                X",
"XooooooooooooooooooooooooooooooooooooooooooooooooXX                                                X",
"XooooooooooooooooooooooooooooooooooooooooooooooooXX                                                X",
"XooooooooooooooooooooooooooooooooooooooooooooooooXX                                                X",
"XooooooooooooooooooooooooooooooooooooooooooooooooXX                                                X",
"XooooooooooooooooooooooooooooooooooooooooooooooooXX                                                X",
"XooooooooooooooooooooooooooooooooooooooooooooooooXX                                                X",
"XooooooooooooooooooooooooooooooooooooooooooooooooXX                                                X",
"XooooooooooooooooooooooooooooooooooooooooooooooooXX                                                X",
"XooooooooooooooooooooooooooooooooooooooooooooooooXX                                                X",
"XooooooooooooooooooooooooooooooooooooooooooooooooXX                                                X",
"XooooooooooooooooooooooooooooooooooooooooooooooooXX                                                X",
"XooooooooooooooooooooooooooooooooooooooooooooooooXX                                                X",
"XooooooooooooooooooooooooooooooooooooooooooooooooXX                                                X",
"XooooooooooooooooooooooooooooooooooooooooooooooooXX                                                X",
"XooooooooooooooooooooooooooooooooooooooooooooooooXX                                                X",
"XooooooooooooooooooooooooooooooooooooooooooooooooXX                                                X",
"XooooooooooooooooooooooooooooooooooooooooooooooooXX                                                X",
"XooooooooooooooooooooooooooooooooooooooooooooooooXX                                                X",
"XooooooooooooooooooooooooooooooooooooooooooooooooXX                                                X",
"XooooooooooooooooooooooooooooooooooooooooooooooooXX                                                X",
"XooooooooooooooooooooooooooooooooooooooooooooooooXX                                                X",
"XooooooooooooooooooooooooooooooooooooooooooooooooXX                                                X",
"XooooooooooooooooooooooooooooooooooooooooooooooooXX                                                X",
"XooooooooooooooooooooooooooooooooooooooooooooooooXX                                                X",
"XooooooooooooooooooooooooooooooooooooooooooooooooXX                                                X",
"XooooooooooooooooooooooooooooooooooooooooooooooooXX                                                X",
"XXXXXXXXXXXXXXXXXXXXXXXXXXXXXXXXXXXXXXXXXXXXXXXXXXXXXXXXXXXXXXXXXXXXXXXXXXXXXXXXXXXXXXXXXXXXXXXXXXXX"
};
