/* XPM */
static char *def192edd1d1475dfcdf7ab0937b5a50CRlkV0qY8YjtJTaa[] = {
/* columns rows colors chars-per-pixel */
"100 100 27 1 ",
"  c #282828",
". c gray18",
"X c gray20",
"o c gray23",
"O c gray26",
"+ c gray27",
"@ c gray29",
"# c #4C4C4C",
"$ c #535353",
"% c #5D5D5D",
"& c gray39",
"* c #656565",
"= c #686868",
"- c gray42",
"; c gray47",
": c #7B7B7B",
"> c #7C7C7C",
", c red",
"< c #818181",
"1 c #868686",
"2 c #898989",
"3 c gray56",
"4 c #A3A2A2",
"5 c #CDC7B7",
"6 c #E4DDCB",
"7 c #E6E6E6",
"8 c white",
/* pixels */
"6666666666666666666666666666666666666666666666666666666666666666666666666666666666666666666666666666",
"6%%%%%%%%%%%%%%%%%%%%%%%%%%%%%%%%%%%%%%%%%%%%%%%%668888888888888888888888888888888888888888888888886",
"6%%%%%%%%%%%%%%%%%%%%%%%%%%%%%%%%%%%%%%%%%%%%%%%%668888888888888888888888888888888888888888888888886",
"6%%%%%%%%%%%%%%%%%%%%%%%%%%%%%%%%%%%%%%%$$$$$$$$$557777777778888888888888888888888888888888888888886",
"6%%%%%%%%%%%%%%%%%%%%%%%%%%%%%%%%%%%$$$$$$$$$$$$$557777777777777888888888888888888888888888888888886",
"6%%%%%%%%%%%%%%%%%%%%%%%%%%%%%%%%$$$$$$$$                  77777777888888888888888888888888888888886",
"6%%%%%%%%%%%%%%%%%%%%%%%%%%%%%%$$$$$$                          7777778888888888888888888888888888886",
"6%%%%%%%%%%%%%%%%%%%%%%%%%%%%$$$$$                                7777788888888888888888888888888886",
"6%%%%%%%%%%%%%%%%%%%%%%%%%%$$$$             444444444444             7777888888888888888888888888886",
"6%%%%%%%%%%%%%%%%%%%%%%%%$$$$          4444444444444444444444          77778888888888888888888888886",
"6%%%%%%%%%%%%%%%%%%%%%%$$$$         44444                  44444         777788888888888888888888886",
"6%%%%%%%%%%%%%%%%%%%%%$$$$       4444                          4444       77778888888888888888888886",
"6%%%%%%%%%%%%%%%%%%%%$$$       4444                              4444       777888888888888888888886",
"6%%%%%%%%%%%%%%%%%%$$$$      444                                    444      77778888888888888888886",
"6%%%%%%%%%%%%%%%%%$$$      444                                        444      777888888888888888886",
"6%%%%%%%%%%%%%%%%$$$      444                                          444      77788888888888888886",
"6%%%%%%%%%%%%%%%$$$      44                                              44      7778888888888888886",
"6%%%%%%%%%%%%%%$$$     444                                                444     777888888888888886",
"6%%%%%%%%%%%%%$$$     44                                                    44     77788888888888886",
"6%%%%%%%%%%%%$$$     44                                                      44     7778888888888886",
"6%%%%%%%%%%%%$$     44                                                        44     778888888888886",
"6%%%%%%%%%%%$$     44                                                          44     77888888888886",
"6%%%%%%%%%%$$$    44                                                            44    77788888888886",
"6%%%%%%%%%$$$    44                                                              44    7778888888886",
"6%%%%%%%%%$$     4     oooo                                                       4     778888888886",
"6%%%%%%%%$$$    44    oo  o                                         .#$$$#        44    777888888886",
"6%%%%%%%%$$    44    oo   o                                         >33333>        44    77888888886",
"6%%%%%%%$$    44     o    o                                         3&$$$=3         44    7788888886",
"6%%%%%%%$$    44     o    o                                         3     3         44    7788888886",
"6%%%%%%$$    44      o    o                                         >:   >>          44    778888886",
"6%%%%%%$$    4       o    o                                         .@   +.           4    778888886",
"6%%%%%$$    44       o    o                                         $$$$$$$           44    77888886",
"6%%%%%$$    4        o    o                                         3333333            4    77888886",
"6%%%%$$$   44        o    o                                         $$$$$$$            44   77788886",
"6%%%%$$    44        o    o                                         .$$#               44    7788886",
"6%%%%$$    4         o    o                                         >333>               4    7788886",
"6%%%$$$   44         o    o                                         3%3%3               44   7778886",
"6%%%$$    4          o    o                   44444444              3.3&3                4    778886",
"6%%%$$    4          o    o                44444444444444           ::33>                4    778886",
"6%%%$$   44          o    o               4444        4444           O$#X                44   778886",
"6%%$$$   44          o    o              444            444         .#.+                 44   777886",
"6%%$$    4           o    o             444              444        >3>::         444444  4    77886",
"6%%$$    4           o    o            444                444       3=3.3         444444  4    77886",
"6%%$$    4           o    o           444                  444      <%3=3         44      4    77886",
"6%%$$   44           o    o           44                    44      3333>         44      44   77886",
"6%%$$   44           o    o           44                    44      $$$#X         44      44   77886",
"6%%$$   44           o    o          44              44      44     $#$$$         44      44   77886",
"6%%$$   44           o    o          44             4,,4     44     33333         44      44   77886",
"6%%$$   44           o    o          44            4,,,,4    44     $$$&<         44      44   77886",
"66655   44           o    o          44           4,,,,,,4   44     #$$*3         44      44   55666",
"66655   44           o    o          44           4,,,,,,4   44     3333:         44      44   55666",
"68877   44           o    o          44            4,,,,4    44     $$$#.         44      44   $$%%6",
"68877   44           o    o          44             4,,4     44     .#$$.         44      44   $$%%6",
"68877   44           o    o          44              44      44     <333>         44      44   $$%%6",
"68877   44           o    o           44                    44      3%3%3         44      44   $$%%6",
"68877   44           o    o           44                    44      3.3%3         44      44   $$%%6",
"68877    4           o    o           444                  444      >:33>         44      4    $$%%6",
"68877    4           o    o            444                444        O$@.         444444  4    $$%%6",
"68877    4           o    o             444              444        $$$$$$        444444  4    $$%%6",
"688777   44          o    o              444            444         333333               44   $$$%%6",
"688877   44          o    o               4444        4444          $$$*2=               44   $$%%%6",
"688877    4          o    o                44444444444444               32               4    $$%%%6",
"688877    4          o    o                   44444444              $$  --               4    $$%%%6",
"6888777   44         o    o                                         33                  44   $$$%%%6",
"6888877    4         o    o                                         $$                  4    $$%%%%6",
"6888877    44        o    o                                           3=               44    $$%%%%6",
"68888777   44        o    o                                           3@:O             44   $$$%%%%6",
"68888877    4        o    o                                           3 o>*            4    $$%%%%%6",
"68888877    44       o    o                                         3333333           44    $$%%%%%6",
"688888877    4       o    o                                         ==3-==-           4    $$%%%%%%6",
"688888877    44      o    o                                           $              44    $$%%%%%%6",
"6888888877    44     o    o                                         $X   +          44    $$%%%%%%%6",
"6888888877    44     oo   o                                         32@  >:         44    $$%%%%%%%6",
"68888888877    44     oo  o                                         3&1O  3        44    $$%%%%%%%%6",
"688888888777    44     oooo                                         3 #2%*3       44    $$$%%%%%%%%6",
"688888888877     4                                                  3  $33>       4     $$%%%%%%%%%6",
"6888888888777    44                                                 $   o#.      44    $$$%%%%%%%%%6",
"68888888888777    44                                                            44    $$$%%%%%%%%%%6",
"68888888888877     44                                                          44     $$%%%%%%%%%%%6",
"688888888888877     44                                                        44     $$%%%%%%%%%%%%6",
"6888888888888777     44                                                      44     $$$%%%%%%%%%%%%6",
"68888888888888777     44                                                    44     $$$%%%%%%%%%%%%%6",
"688888888888888777     444                                                444     $$$%%%%%%%%%%%%%%6",
"6888888888888888777      44                                              44      $$$%%%%%%%%%%%%%%%6",
"68888888888888888777      444                                          444      $$$%%%%%%%%%%%%%%%%6",
"688888888888888888777      444                                        444      $$$%%%%%%%%%%%%%%%%%6",
"68888888888888888887777      444                                    444      $$$$%%%%%%%%%%%%%%%%%%6",
"688888888888888888888777       4444                              4444       $$$%%%%%%%%%%%%%%%%%%%%6",
"68888888888888888888887777       4444                          4444       $$$$%%%%%%%%%%%%%%%%%%%%%6",
"688888888888888888888887777         44444                  44444         $$$$%%%%%%%%%%%%%%%%%%%%%%6",
"68888888888888888888888887777          4444444444444444444444          $$$$%%%%%%%%%%%%%%%%%%%%%%%%6",
"6888888888888888888888888887777             444444444444             $$$$%%%%%%%%%%%%%%%%%%%%%%%%%%6",
"6888888888888888888888888888877777                                $$$$$%%%%%%%%%%%%%%%%%%%%%%%%%%%%6",
"6888888888888888888888888888888777777                          $$$$$$%%%%%%%%%%%%%%%%%%%%%%%%%%%%%%6",
"68888888888888888888888888888888877777777                  $$$$$$$$%%%%%%%%%%%%%%%%%%%%%%%%%%%%%%%%6",
"688888888888888888888888888888888888777777777777755$$$$$$$$$$$$$%%%%%%%%%%%%%%%%%%%%%%%%%%%%%%%%%%%6",
"688888888888888888888888888888888888888877777777755$$$$$$$$$%%%%%%%%%%%%%%%%%%%%%%%%%%%%%%%%%%%%%%%6",
"688888888888888888888888888888888888888888888888866%%%%%%%%%%%%%%%%%%%%%%%%%%%%%%%%%%%%%%%%%%%%%%%%6",
"688888888888888888888888888888888888888888888888866%%%%%%%%%%%%%%%%%%%%%%%%%%%%%%%%%%%%%%%%%%%%%%%%6",
"6666666666666666666666666666666666666666666666666666666666666666666666666666666666666666666666666666"
};
