/* XPM */
static char *_66cf886664b4e4e9e04202acf73d250swPAfGpZ1tpTytd1[] = {
/* columns rows colors chars-per-pixel */
"100 100 29 1 ",
"  c #282828",
". c #2C2C2C",
"X c gray20",
"o c gray23",
"O c gray26",
"+ c gray27",
"@ c #484848",
"# c #4C4C4C",
"$ c gray31",
"% c #535353",
"& c #5D5D5D",
"* c #5F5F5F",
"= c #626262",
"- c #656565",
"; c #686868",
": c gray42",
"> c gray47",
", c gray48",
"< c gray50",
"1 c red",
"2 c #818181",
"3 c #868686",
"4 c gray54",
"5 c gray56",
"6 c #A3A2A2",
"7 c #CDC7B7",
"8 c #E4DDCB",
"9 c #E6E6E6",
"0 c white",
/* pixels */
"8888888888888888888888888888888888888888888888888888888888888888888888888888888888888888888888888888",
"8&&&&&&&&&&&&&&&&&&&&&&&&&&&&&&&&&&&&&&&&&&&&&&&&880000000000000000000000000000000000000000000000008",
"8&&&&&&&&&&&&&&&&&&&&&&&&&&&&&&&&&&&&&&&&&&&&&&&&880000000000000000000000000000000000000000000000008",
"8&&&&&&&&&&&&&&&&&&&&&&&&&&&&&&&&&&&&&&&%%%%%%%%%779999999990000000000000000000000000000000000000008",
"8&&&&&&&&&&&&&&&&&&&&&&&&&&&&&&&&&&&%%%%%%%%%%%%%779999999999999000000000000000000000000000000000008",
"8&&&&&&&&&&&&&&&&&&&&&&&&&&&&&&&&%%%%%%%%                  99999999000000000000000000000000000000008",
"8&&&&&&&&&&&&&&&&&&&&&&&&&&&&&&%%%%%%                          9999990000000000000000000000000000008",
"8&&&&&&&&&&&&&&&&&&&&&&&&&&&&%%%%%                                9999900000000000000000000000000008",
"8&&&&&&&&&&&&&&&&&&&&&&&&&&%%%%             666666666666             9999000000000000000000000000008",
"8&&&&&&&&&&&&&&&&&&&&&&&&%%%%          6666666666666666666666          99990000000000000000000000008",
"8&&&&&&&&&&&&&&&&&&&&&&%%%%         66666                  66666         999900000000000000000000008",
"8&&&&&&&&&&&&&&&&&&&&&%%%%       6666                          6666       99990000000000000000000008",
"8&&&&&&&&&&&&&&&&&&&&%%%       6666      66              66      6666       999000000000000000000008",
"8&&&&&&&&&&&&&&&&&&%%%%      666         66              66         666      99990000000000000000008",
"8&&&&&&&&&&&&&&&&&%%%      666           66              66           666      999000000000000000008",
"8&&&&&&&&&&&&&&&&%%%      666            66              66            666      99900000000000000008",
"8&&&&&&&&&&&&&&&%%%      66              666666666666666666              66      9990000000000000008",
"8&&&&&&&&&&&&&&%%%     666               666666666666666666               666     999000000000000008",
"8&&&&&&&&&&&&&%%%     66                                                    66     99900000000000008",
"8&&&&&&&&&&&&%%%     66                                                      66     9990000000000008",
"8&&&&&&&&&&&&%%     66                                                        66     990000000000008",
"8&&&&&&&&&&&%%     66                                                          66     99000000000008",
"8&&&&&&&&&&%%%    66                                                            66    99900000000008",
"8&&&&&&&&&%%%    66                                                              66    9990000000008",
"8&&&&&&&&&%%     6                                                                6     990000000008",
"8&&&&&&&&%%%    66        <55< %5%                                 &5:  ,55<.     66    999000000008",
"8&&&&&&&&%%    66        #5;.,@#5%                        %5;5;   O25: +, -5#      66    99000000008",
"8&&&&&&&%%    66         %5%   %5%.<55<. ,55<.%5<5<X.<55<.%545;   ,o5:    &5o       66    9900000008",
"8&&&&&&&%%    66         %5%   %5%%5&&5%+,.;5#%5==5##5=&5#%5-    ;@ 5;   +3%        66    9900000008",
"8&&&&&&%%    66          %5%   %5%%5555%.<555%%5%%5%%5555%%5%    55555% @3#          66    990000008",
"8&&&&&&%%    6           #5= ,@%5#%5& ,+#5-&5%%5%%5%%5&.,+#5% %5%   5; X4=            6    990000008",
"8&&&&&%%    66           .<55<.%5% 255, .<525%%5#%5%.<55, %5% %5%   5: %5555%         66    99000008",
"8&&&&&%%    6                                                                          6    99000008",
"8&&&&%%%   66                                                                          66   99900008",
"8&&&&%%    66                                                                          66    9900008",
"8&&&&%%    6                                                                            6    9900008",
"8&&&%%%   66                                                                            66   9990008",
"8&&&%%    6                                   66666666                                   6    990008",
"8&&&%%    6                                66666666666666                                6    990008",
"8&&&%%   66                               6666        6666                               66   990008",
"8&&%%%   66                              666            666                              66   999008",
"8&&%%    6                              666              666                              6    99008",
"8&&%%    6                             666       66       666                             6    99008",
"8&&%%    6                            666       6116       666                            6    99008",
"8&&%%   66                            66       611116       66                            66   99008",
"8&&%%   66                            66      61111116      66                            66   99008",
"8&&%%   66                           66       61111116       66                           66   99008",
"8&&%%   66                           66        611116        66                           66   99008",
"8&&%%   66                           66         6116         66                           66   99008",
"88877   66                           66          66          66                           66   77888",
"88877   66                           66                      66                           66   77888",
"80099   66                           66                      66                           66   %%&&8",
"80099   66                           66                      66                           66   %%&&8",
"80099   66                           66                      66                           66   %%&&8",
"80099   66                            66                    66                            66   %%&&8",
"80099   66                            66                    66                            66   %%&&8",
"80099    6                            666                  666                            6    %%&&8",
"80099    6                             666                666                             6    %%&&8",
"80099    6                              666              666                              6    %%&&8",
"800999   66                              666            666                              66   %%%&&8",
"800099   66                               6666        6666                               66   %%&&&8",
"800099    6                                66666666666666                                6    %%&&&8",
"800099    6                                   66666666                                   6    %%&&&8",
"8000999   66                                                                            66   %%%&&&8",
"8000099    6                                                                            6    %%&&&&8",
"8000099    66                                                                          66    %%&&&&8",
"80000999   66                                                                          66   %%%&&&&8",
"80000099    6                                                                          6    %%&&&&&8",
"80000099    66                                                                        66    %%&&&&&8",
"800000099    6                                                                        6    %%&&&&&&8",
"800000099    66                                                                      66    %%&&&&&&8",
"8000000099    66                                                                    66    %%&&&&&&&8",
"8000000099    66                                                                    66    %%&&&&&&&8",
"80000000099    66       ooooooooooooooooooooooooooooooooooooooooooooooooooo        66    %%&&&&&&&&8",
"800000000999    66      o                                                 o       66    %%%&&&&&&&&8",
"800000000099     6      o                                                 o       6     %%&&&&&&&&&8",
"8000000000999    66     oo                                               oo      66    %%%&&&&&&&&&8",
"80000000000999    66     oo                                             oo      66    %%%&&&&&&&&&&8",
"80000000000099     66     ooooooooooooooooooooooooooooooooooooooooooooooo      66     %%&&&&&&&&&&&8",
"800000000000099     66                                                        66     %%&&&&&&&&&&&&8",
"8000000000000999     66                                                      66     %%%&&&&&&&&&&&&8",
"80000000000000999     66                                                    66     %%%&&&&&&&&&&&&&8",
"800000000000000999     666                                                666     %%%&&&&&&&&&&&&&&8",
"8000000000000000999      66                                              66      %%%&&&&&&&&&&&&&&&8",
"80000000000000000999      666                                          666      %%%&&&&&&&&&&&&&&&&8",
"800000000000000000999      666                                        666      %%%&&&&&&&&&&&&&&&&&8",
"80000000000000000009999      666                                    666      %%%%&&&&&&&&&&&&&&&&&&8",
"800000000000000000000999       6666                              6666       %%%&&&&&&&&&&&&&&&&&&&&8",
"80000000000000000000009999       6666                          6666       %%%%&&&&&&&&&&&&&&&&&&&&&8",
"800000000000000000000009999         66666                  66666         %%%%&&&&&&&&&&&&&&&&&&&&&&8",
"80000000000000000000000009999          6666666666666666666666          %%%%&&&&&&&&&&&&&&&&&&&&&&&&8",
"8000000000000000000000000009999             666666666666             %%%%&&&&&&&&&&&&&&&&&&&&&&&&&&8",
"8000000000000000000000000000099999                                %%%%%&&&&&&&&&&&&&&&&&&&&&&&&&&&&8",
"8000000000000000000000000000000999999                          %%%%%%&&&&&&&&&&&&&&&&&&&&&&&&&&&&&&8",
"80000000000000000000000000000000099999999                  %%%%%%%%&&&&&&&&&&&&&&&&&&&&&&&&&&&&&&&&8",
"800000000000000000000000000000000000999999999999977%%%%%%%%%%%%%&&&&&&&&&&&&&&&&&&&&&&&&&&&&&&&&&&&8",
"800000000000000000000000000000000000000099999999977%%%%%%%%%&&&&&&&&&&&&&&&&&&&&&&&&&&&&&&&&&&&&&&&8",
"800000000000000000000000000000000000000000000000088&&&&&&&&&&&&&&&&&&&&&&&&&&&&&&&&&&&&&&&&&&&&&&&&8",
"800000000000000000000000000000000000000000000000088&&&&&&&&&&&&&&&&&&&&&&&&&&&&&&&&&&&&&&&&&&&&&&&&8",
"8888888888888888888888888888888888888888888888888888888888888888888888888888888888888888888888888888"
};
