/* XPM */
static char *f9fb48e295f946bfba6bbb050489a842q3vMlsexAJtqfDEt[] = {
/* columns rows colors chars-per-pixel */
"100 100 46 1 ",
"  c #1D1D1D",
". c #5D5D5D",
"X c #5D615F",
"o c #5C6562",
"O c #5C6864",
"+ c #5B6C66",
"@ c #5B6C67",
"# c #5A6F69",
"$ c #5A7069",
"% c #5A736B",
"& c #59756D",
"* c #59796F",
"= c #587C71",
"- c #578175",
"; c #578275",
": c #578477",
"> c #568779",
", c #558A7B",
"< c #558C7C",
"1 c #548E7E",
"2 c #548F7E",
"3 c #548F7F",
"4 c #30BB9E",
"5 c #539382",
"6 c #539684",
"7 c #529885",
"8 c #30E2BD",
"9 c #7FD5B7",
"0 c #7FF6D2",
"q c #8EDFC9",
"w c #8EFFE1",
"e c #DFDFCB",
"r c #E4DDCB",
"t c #CBE5CD",
"y c #D0E4CD",
"u c #D8E1CC",
"i c #E3FFF6",
"p c #E5FFF7",
"a c #E8FFF7",
"s c #E9FFF8",
"d c #EFFFFA",
"f c #F2FFFB",
"g c #F4FFFB",
"h c #F7FFFC",
"j c #FAFFFD",
"k c white",
/* pixels */
"rrrrrrrrrrrrrrrrrrrrrrrrrrrrrrrrrrrrrrrrrrrrrrrrrrrrrrrrrrrrrrrrrrrrrrrrrrrrrrrrrrrrrrrrrrrrrrrrrrrr",
"r................................................rrkkkkkkkkkkkkkkkkkkkkkkkkkkkkkkkkkkkkkkkkkkkkkkkkr",
"r................................................rrkkkkkkkkkkkkkkkkkkkkkkkkkkkkkkkkkkkkkkkkkkkkkkkkr",
"r................................................rrkkkkkkkkkkkkkkkkkkkkkkkkkkkkkkkkkkkkkkkkkkkkkkkkr",
"r................................................rrkkkkkkkkkkkkkkkkkkkkkkkkkkkkkkkkkkkkkkkkkkkkkkkkr",
"r................................................rrkkkkkkkkkkkkkkkkkkkkkkkkkkkkkkkkkkkkkkkkkkkkkkkkr",
"r...........................................@*:33yyssdgjkkkkkkkkkkkkkkkkkkkkkkkkkkkkkkkkkkkkkkkkkkkr",
"r.....................................@:377777777ttiiiiiiiisdjkkkkkkkkkkkkkkkkkkkkkkkkkkkkkkkkkkkkkr",
"r..................................@:777777777777ttiiiiiiiiiiiidjkkkkkkkkkkkkkkkkkkkkkkkkkkkkkkkkkkr",
"r...............................@:777777777777777ttiiiiiiiiiiiiiiidjkkkkkkkkkkkkkkkkkkkkkkkkkkkkkkkr",
"r.............................@377777777777777777ttiiiiiiiiiiiiiiiiiajkkkkkkkkkkkkkkkkkkkkkkkkkkkkkr",
"r...........................@37777777777777777777ttiiiiiiiiiiiiiiiiipiajkkkkkkkkkkkkkkkkkkkkkkkkkkkr",
"r.........................@3777777777777777777777ttiiiiiiiiiiiiiiiiiiiiiajkkkkkkkkkkkkkkkkkkkkkkkkkr",
"r........................*77777777777777777777777ttiiiiiiiiiiiiiiiiiiiiipifkkkkkkkkkkkkkkkkkkkkkkkkr",
"r......................@3777777777777777777777777ttiiiiiiiiiiiiiiiiiiiiiiipahkkkkkkkkkkkkkkkkkkkkkkr",
"r.....................*77777777777777777777777777ttiiiiiiiiiiiiiiiiiiiiiiiiipfkkkkkkkkkkkkkkkkkkkkkr",
"r....................:777777777777777777777777777ttiiiiiiiiiiiiiiiiiiiiiiiiiiidkkkkkkkkkkkkkkkkkkkkr",
"r..................@37777777777777777777777777777ttiiiiiiiiiiiiiiiiiiiiiiiiiiiiajkkkkkkkkkkkkkkkkkkr",
"r.................@777777777777777777777777777              iiiiiiiiiiiiiiiiiiiiijkkkkkkkkkkkkkkkkkr",
"r................@7777777777777777777777777                    iiiiiiiiiiiiiiiiiiijkkkkkkkkkkkkkkkkr",
"r...............@777777777777777777777777                       iiiiiiiiiiiiiiiiiiijkkkkkkkkkkkkkkkr",
"r..............@77777777777777777777777         800wwwwwww       iiiiiiiiiiiiiiiiiiigkkkkkkkkkkkkkkr",
"r..............>777777777777777777777        888800wwwwwwwwww     iiiiiiiiiiiiiiiiiidkkkkkkkkkkkkkkr",
"r.............:777777777777777777777       88888800wwwwwwwwwww     iiiiiiiiiiiiiiiiiidkkkkkkkkkkkkkr",
"r............*777777777777777777777      8888888800wwwwwwwwwwww     iiiiiiiiiiiiiiiiiigkkkkkkkkkkkkr",
"r...........@777777777777777777777     888888888800wwwwwwwwwwkkw     iiiiiiiiiiiiiiiiiijkkkkkkkkkkkr",
"r...........>7777777777777777777      8888888888800wwwwwwwwwwwkww    iiiiiiiiiiiiiiiiiidkkkkkkkkkkkr",
"r..........*77777777777777777777     88888888888800wwwwwwwwwwwwkww    iiiiiiiiiiiiiiiiiifkkkkkkkkkkr",
"r.........@77777777777777777777     888888888888800wwwwwwwwwwwwwkw    iiiiiiiiiiiiiiiiiiigkkkkkkkkkr",
"r.........>7777777777777777777     8888888888888800wwwwwwwwwwwwwkww    iiiiiiiiiiiiiiiiiidkkkkkkkkkr",
"r........@7777777777777777777     88888888888888800wwwwwwwwwwwwwkww    iiiiiiiiiiiiiiiiiiijkkkkkkkkr",
"r........>7777777777777777777    888888888888888800wwwwwwwwwwwwwwkww   iiiiiiiiiiiiiiiiiiidkkkkkkkkr",
"r.......@7777777777777777777    8888888888888888800wwwwwwwwwwwwwwgww    piiiiiiiiiiiiiiiiiijkkkkkkkr",
"r.......>7777777777777777777    8888888888888888800wwwwwwwwwwwwwwwww    iiiiiiiiiiiiiiiiiiiakkkkkkkr",
"r......@77777777777777777777   88888888888888888800wwwwwwwwwwwwwwwwww   iiiiiiiiiiiiiiiiiiiijkkkkkkr",
"r......=7777777777777777777    888888888888     800ww     wwwwwwwwwww   iiiiiiiiiiiiiiiiiiiifkkkkkkr",
"r......57777777777777777777    88888888888    k  00w    k  wwwwwwwwww    iiiiiiiiiiiiiiiiiiipkkkkkkr",
"r.....@77777777777777777777   888888888888    kk 00w    kk wwwwwwwwww    iiiiiiiiiiiiiiiiiiipjkkkkkr",
"r.....=77777777777777777777   888888888888       00w       wwwwwwwwwww   iiiiiiiiiiiiiiiiiiiifkkkkkr",
"r.....,7777777777777777777    488888888888      800w      wwwwwwwwwwww   iiiiiiiiiiiiiiiiiiiidkkkkkr",
"r....@77777777777777777777    488888888888     8800w     wwwwwwwwwwwww   iiiiiiiiiiiiiiiiiiiiijkkkkr",
"r....=77777777777777777777   4488888888888     8800w     wwwwwwwwwwwww   iiiiiiiiiiiiiiiiiiiiifkkkkr",
"r....=77777777777777777777   4488888888888      800w      wwwwwwwwwwww   iiiiiiiiiiiiiiiiiiiiifkkkkr",
"r....,77777777777777777777   4448888888888       00w       wwwwwwwwwww   iiiiiiiiiiiiiiiiiiiipakkkkr",
"r....777777777777777777777   4448888888888       00w       wwwwwwwwwww   iiiiiiiiiiiiiiiiiiiiiikkkkr",
"r....777777777777777777777   4448888888888       00w       wwwwwwwwwww   iiiiiiiiiiiiiiiiiiiiipkkkkr",
"r...@777777777777777777777   44488888888888     800ww     wwwwwwwwwwww   iiiiiiiiiiiiiiiiiiiiiihkkkr",
"r...$777777777777777777777   4448888888888888888800wwwwwwwwwwwwwwwwwww   iiiiiiiiiiiiiiiiiiiiiifkkkr",
"r...=777777777777777777777   4448888888888888888800wwwwwwwwwwwwwwwwwww   iiiiiiiiiiiiiiiiiiiiiifkkkr",
"rrrruttttttttttttttttttttt   99900000000000000000000000000000000000000   tttttttttttttttttttttturrrr",
"rrrruttttttttttttttttttttt   99990000000000000000000000000000000000w00   tttttttttttttttttttttturrrr",
"rkkkfiiiiiiiiiiiiiiiiiiiii   qqqqwwwwwwwwwwwwwwww008888888888888888888   7337777777777777777775:...r",
"rkkkfiiiiiiiiiiiiiiiiiiiii   qqqqwwwwwwwwwwwwwwww008888888888888888888   7777777777777777777777&...r",
"rkkkfiiiiiiiiiiiiiiiiiiiii   qqqqwwwwwwwwwwwwwwww008888888888888888888   7777777777777777777777:...r",
"rkkkfiiiiiiiiiiiiiiiiiiiii    qqqwwwwwwwwwwwwwwww008888888888888888888   7777777777777777777777:...r",
"rkkkhiiiiiiiiiiiiiiiiiiiii    qqqwwwwwwwwwwwwwwww00888888888888888888    7777777777777777777777%...r",
"rkkkjiiiiiiiiiiiiiiiiiiiiii   qqqwwwwwwwwwwwwwwww00888888888888888888    7777777777777777777777$...r",
"rkkkkiiiiiiiiiiiiiiiiiiiiii   qqqqwwwwwwwwwwwwwww00888888888888888888   77777777777777777777777X...r",
"rkkkkiiiiiiiiiiiiiiiiiiiiii    qqqwwwwwwwwwwwwwww00888888888888888888   77777777777777777777777....r",
"rkkkkaiiiiiiiiiiiiiiiiiiiii    qqqwwwwwwwwwwwwwww00888888888888888888   77777777777777777777772....r",
"rkkkkdiiiiiiiiiiiiiiiiiiiiii   qqqwwwwwwwwwwwwwww00888888888888888888   7777777777777777777777:....r",
"rkkkkfiiiiiiiiiiiiiiiiiiiiii   qqqwwwwwwwwwwwwwww0088888888888888888    7777777777777777777775-....r",
"rkkkkhiiiiiiiiiiiiiiiiiiiiii    qqwwwwwwwwwwwwwww0088888888888888888    7777777777777777777777$....r",
"rkkkkkaiiiiiiiiiiiiiiiiiiiii    qqwwwwwwwwwwwwwww0088888888888888888    7777777777777777777772X....r",
"rkkkkkdiiiiiiiiiiiiiiiiiiiii    qqwwwwwwwwwwwwwww0088888888888888888    777777777777777777777:.....r",
"rkkkkkhiiiiiiiiiiiiiiiiiiiii    qqwwwwwwwwwwwwwww0088888888888888888    777777777777777777777$.....r",
"rkkkkkkiiiiiiiiiiiiiiiiiiii    qqqwwwwwwwwwwwwwww0088888888888888888    777777777777777777777X.....r",
"rkkkkkkdiiiiiiiiiiiiiiiiii     qqqqwwwwwwwwwwwwww00888888888888888888    7777777777777777777:......r",
"rkkkkkkhpiiiiiiiiiiiiiiii      qqqqwwwwwwwwwwwwww00888888888888888888    7777777777777777776$......r",
"rkkkkkkkpiiiiiiiiiiiiiii     qqqqqqwwwwwwwwwwwwww008888888888888888888    777777777777777773o......r",
"rkkkkkkkhiiiiiiiiiiiiii     qqqqqqqwwwwwwwwwwwwww008888888888888888888    77777777777777776&.......r",
"rkkkkkkkkpiiiiiiiiiiiii    qqqqqqqqqwwwwwwwwwwwww0088888888888888888888    7777777777777775X.......r",
"rkkkkkkkkhiiiiiiiiiiii    qqqqqqqqqqwwwwwwwwwwwww0088888888888888888888    777777777777777&........r",
"rkkkkkkkkkpiiiiiiiiii     qqqqqqqqqqqqwwwwwwwwwww00888888888888888888888   777777777777775X........r",
"rkkkkkkkkkhiiiiiiiii     qqqqqqqqqqqqqqwwwwwwwwww00888888888888888888888   77777777777777%.........r",
"rkkkkkkkkkkdiiiiiiii    qqqqqqqqqqqqqqqqqwwwwwwww00888888888888888888888    777777777777,X.........r",
"rkkkkkkkkkkjpiiiiiii   qqqqqqqqqqqqqqqqqqqwwwwwww00888888888888888888888    777777777775o..........r",
"rkkkkkkkkkkkhiiiiiii   qqqqqqqqqqqqqqqqqqqqwwwwww008888888888888888888888   77777777777%...........r",
"rkkkkkkkkkkkkdiiiiii   qqqqqqqqqqqqqqqqqqqqwwwwww008888888888888888888888   7777777777,X...........r",
"rkkkkkkkkkkkkjpiiiii   qqqqqqqqqq      qqqqqwwwww0088888      88888888888   7777777775o............r",
"rkkkkkkkkkkkkkjpiiii    qqqqqqqq        qqqqqwwww0w8888       88888888888   777777775O.............r",
"rkkkkkkkkkkkkkkgiiii     qqqqq           qqqqqwww00888         8888888888   77777777*..............r",
"rkkkkkkkkkkkkkkkfpiii              ii    qqqqqqww0944     7     888888888   7777777=X..............r",
"rkkkkkkkkkkkkkkkkfiiii            iiii    qqqqqqq9944    777     88888888   777777=X...............r",
"rkkkkkkkkkkkkkkkkkfiiii         iiiiii     qqqqqq994    77777     8888888   77777=X................r",
"rkkkkkkkkkkkkkkkkkkfiiiiiiiiiiiiiiiiiii     qqqqq994    777777      88888   7777=X.................r",
"rkkkkkkkkkkkkkkkkkkkjpiiiiiiiiiiiiiiiiii      qqq99    77777777      888    775+X..................r",
"rkkkkkkkkkkkkkkkkkkkkjapiiiiiiiiiiiiiiiii       q99    777777777            53o....................r",
"rkkkkkkkkkkkkkkkkkkkkkjfiiiiiiiiiiiiiiiiii            777777777777         7:X.....................r",
"rkkkkkkkkkkkkkkkkkkkkkkkkaiiiiiiiiiiiiiiiiii          7777777777777        @XX.....................r",
"rkkkkkkkkkkkkkkkkkkkkkkkkjfiiiiiiiiiiiiiiiiiii       77777777777777777777=o........................r",
"rkkkkkkkkkkkkkkkkkkkkkkkkkkjfiiiiiiiiiiiiiiiiiiiitt27777777777777777777:@X.........................r",
"rkkkkkkkkkkkkkkkkkkkkkkkkkkkkjdiiiiiiiiiiiiiiiiiitt777777777777777757:+............................r",
"rkkkkkkkkkkkkkkkkkkkkkkkkkkkkkkjfiiiiiiiiiiiiiiiitt7777777777777777:@X.............................r",
"rkkkkkkkkkkkkkkkkkkkkkkkkkkkkkkkkjgdiiiiiiiiiiiiitt7777777777777:%OX...............................r",
"rkkkkkkkkkkkkkkkkkkkkkkkkkkkkkkkkkkkhgaiiiiiiiiiitt7777777777;$oX..................................r",
"rkkkkkkkkkkkkkkkkkkkkkkkkkkkkkkkkkkkkkkjjjhhdaiiitt7773:*&#oOo.....................................r",
"rkkkkkkkkkkkkkkkkkkkkkkkkkkkkkkkkkkkkkkkkkkkkjjjjee@@OoX...........................................r",
"rkkkkkkkkkkkkkkkkkkkkkkkkkkkkkkkkkkkkkkkkkkkkkkkkrr................................................r",
"rrrrrrrrrrrrrrrrrrrrrrrrrrrrrrrrrrrrrrrrrrrrrrrrrrrrrrrrrrrrrrrrrrrrrrrrrrrrrrrrrrrrrrrrrrrrrrrrrrrr"
};
