/* XPM */
static char *a8b53642ff044a97f929ce18663fdb88sdmvwcsT24jlgF8a[] = {
/* columns rows colors chars-per-pixel */
"100 100 47 1 ",
"  c #1E1E1E",
". c #202020",
"X c gray14",
"o c #282828",
"O c #2C2C2C",
"+ c gray20",
"@ c #353535",
"# c gray22",
"$ c #3C3C3C",
"% c gray25",
"& c gray28",
"* c gray29",
"= c gray30",
"- c #505050",
"; c gray33",
": c gray35",
"> c gray36",
", c #626262",
"< c #676767",
"1 c #6A6A6A",
"2 c #6C6C6C",
"3 c gray45",
"4 c #767676",
"5 c gray47",
"6 c gray50",
"7 c gray51",
"8 c gray52",
"9 c #898989",
"0 c #8D8D8D",
"q c #929292",
"w c gray58",
"e c #9B9B9B",
"r c #9D9D9D",
"t c #A0A0A0",
"y c gray65",
"u c #A9A9A9",
"i c gray68",
"p c gray69",
"a c #B7B7B7",
"s c #B9B9B9",
"d c gray75",
"f c #C3C3C3",
"g c gray78",
"h c #CACACA",
"j c gray81",
"k c LightGray",
"l c gray83",
/* pixels */
"                                                                                                    ",
"                                                                                                    ",
"                                                                                                    ",
"                                                                                                    ",
"                                                                                                    ",
"                                                                                                    ",
"                                                                                                    ",
"                                                                                                    ",
"                                                                                                    ",
"                                                                                                    ",
"                                                                                                    ",
"                                                                                                    ",
"                                                                                                    ",
"                                                                                                    ",
"                                                                                                    ",
"                                                                                                    ",
"                                                                                                    ",
"                                                                                                    ",
"                                                                                                    ",
"                                                                                                    ",
"                                              @<7euyr81$                                            ",
"                                           X4dllllllllllf7o                                         ",
"                                          <jllllllllllllklk4                                        ",
"                                        .tlkllllllllllllllllpo                                      ",
"                                       .fkkllllllllllllllllllho                                     ",
"                                       tllkllllllllllllllllllla                                     ",
"                                      4llllllllllkggjllllllllllq                                    ",
"                                     +llllllllld;    =pkllllllll*                                   ",
"                                     rllllllkkq        7lllllllla                                   ",
"                                    +kllllllle          5lllllllk&                                  ",
"                                    rlllllllh.           sllllllla                                  ",
"                                    klllllll>            allllllllO                                 ",
"                                   =kllllllh            <lllllllll3                                 ",
"                                   elllllll0           Xjlllllllllp                                 ",
"                                   gllllkll@           rllllllllllk                                 ",
"                                  olllllkkj           =lllllllllkkk*                                ",
"                                  :lllllllp           gkllkklllllll6                                ",
"                                  6lllllll8          8lllllklllllllr                                ",
"                                  rlllllll;         @kllllkkllllllls                                ",
"                                  slllllll+         akllllk1kllllllh                                ",
"                                  hllllllk         1lllllla hkkklllk                                ",
"                                  kllllllk        Xklllllk+ fkllllllo                               ",
"                                  kkllllkg        tllllll5  plllllll@                               ",
"                                  llllllkd       -lllllkf   illlllll%.                              ",
"                                 Xllllllkd      .glllllk$   ylllllll=                               ",
"                                 +llllllka      9llllllq    rlllllll:                               ",
"                                 $llllllkp     #klllllh.    elllllkk<                               ",
"                                 &llllllkp     sllllll=     qllllllk3                               ",
"                                 &llllllks    2lllllkt      wlllllll1                               ",
"                                 @lllllllf   XklllllkX      rkllllll>                               ",
"                                 olllllllh   yllllll,       tlllllll;                               ",
"                                  llllllkk  -llllllp        ylllllll*                               ",
"                                  llllllkk  hkllllkO        illlllll#                               ",
"                                  klllllkl.0llllll4         dkllllllO                               ",
"                                  jlllllkk=lllllld          hlllllkk..                              ",
"                                  fllllllkjlllllk#          jlllllkk                                ",
"                                  ulllllllllllll9           lllllllf                                ",
"                                  0llllllllllllg           *lllllllu                                ",
"                                  <llllllllllll*           7lllllll9                                ",
"                                  $lllllllllllr            illlllll<                                ",
"                                   kllllllllkjX            hlllllllX                                ",
"                                   illlllllll>            &kllllllf                                 ",
"                                   2llllllllu             ekllllll0                                 ",
"                                   ollllllll-            .klllllll&                                 ",
"                                    dklllllld            qkllllllh                                  ",
"                                    ;llllllll2          @kkllllll5                                  ",
"                                    .fklllllll,        @jkllllllj.                                  ",
"                                     >llllllkkk8      >jllllllll5.                                  ",
"                                      akllllllllje66qgkkllllkklg.                                   ",
"                                      Xjllllllllkkkllllklllllkk@                                    ",
"                                       %kkklllllklllllllllllll;                                     ",
"                                        ;kkllllllllllllllllkk<                                      ",
"                                        .oskllllllllkllllllf@                                       ",
"                                           4flllllllkklllg7                                         ",
"                                             $esgkkjkhdr&                                           ",
"                                                                                                    ",
"                                                                                                    ",
"                                                                                                    ",
"                                                                                                    ",
"                                                                                                    ",
"                                                                                                    ",
"                                                                                                    ",
"                                                                                                    ",
"                                                                                                    ",
"                                                                                                    ",
"                                                                                                    ",
"                                                                                                    ",
"                                                                                                    ",
"                                                                                                    ",
"                                                                                                    ",
"                                                                                                    ",
"                                                                                                    ",
"                                                                                                    ",
"                                                                                                    ",
"                                                                                                    ",
"                                                                                                    ",
"                                                                                                    ",
"                                                                                                    ",
"                                                                                                    ",
"                                                                                                    "
};
