/* XPM */
static char *_37ed47bf63b4c28ac26ee7e4f3d3940Lt2g019WOLlQvUhb[] = {
/* columns rows colors chars-per-pixel */
"100 100 31 1 ",
"  c #1E1E1E",
". c gray14",
"X c #282828",
"o c #2C2C2C",
"O c #323232",
"+ c gray21",
"@ c #393939",
"# c #3F3F3F",
"$ c gray25",
"% c gray28",
"& c #494949",
"* c #505050",
"= c #555555",
"- c #606060",
"; c gray42",
": c #6D6D6D",
"> c #797979",
", c #888888",
"< c gray56",
"1 c #989898",
"2 c gray61",
"3 c #A2A2A2",
"4 c gray65",
"5 c gray68",
"6 c #B4B4B4",
"7 c gray73",
"8 c #BCBCBC",
"9 c gray76",
"0 c #CBCBCB",
"q c LightGray",
"w c gray83",
/* pixels */
"                                                                                                    ",
"                                                                                                    ",
"                                                                                                    ",
"                                                                                                    ",
"                                                                                                    ",
"                                                                                                    ",
"                                                                                                    ",
"                                                                                                    ",
"                                                                                                    ",
"                                                                                                    ",
"                                                                                                    ",
"                                                                                                    ",
"                                                                                                    ",
"                                                                                                    ",
"                                                                                                    ",
"                                                                                                    ",
"                                                                                                    ",
"                                                                                                    ",
"                                                                                                    ",
"                                                                                                    ",
"                                                                                                    ",
"                                                                                                    ",
"                                               +38888887&                                           ",
"                                             #5wwwwwwwww2                                           ",
"                                           &6wwwwwwwwwww2                                           ",
"                                         =8wwwwwwwwwwwww2                                           ",
"                                     . =9wwwwwwwwwwwwwww2                                           ",
"                                     :0wwwwwwwwwwwwwwwww2                                           ",
"                                   %0wwwwwwwwwwwwwwwwwww2                                           ",
"                                   ;wwwwwwwwwwwwwwwwwwww2                                           ",
"                                   ;wwwwwwwwwww5-wwwwwww2                                           ",
"                                   ;wwwwwwwwq4@ $wwwwwww2                                           ",
"                                   ;qwwwwwq3O   #wwwwwww2                                           ",
"                                   ;qwwwq1o     #wwwwwww2                                           ",
"                                   ;qqq<X       $wwwwwww2                                           ",
"                                   %0,.         $wwwwwww2                                           ",
"                                                $wwwwwww2                                           ",
"                                                $wwwwwww2                                           ",
"                                                $wwwwwww2                                           ",
"                                                $wwwwwww2                                           ",
"                                                $wwwwwww2                                           ",
"                                                $wwwwwww2                                           ",
"                                                $wwwwwww2                                           ",
"                                                $wwwwwww2                                           ",
"                                                $wwwwwww2                                           ",
"                                                $wwwwwww2                                           ",
"                                                $wwwwwww2                                           ",
"                                                $wwwwwww2                                           ",
"                                                $wwwwwww2                                           ",
"                                                $wwwwwww2                                           ",
"                                                $wwwwwww2                                           ",
"                                                $wwwwwww2                                           ",
"                                                $wwwwwww2                                           ",
"                                                $wwwwwww2                                           ",
"                                                $wwwwwww2                                           ",
"                                                $wwwwwww2                                           ",
"                                                $wwwwwww2                                           ",
"                                                $wwwwwww2                                           ",
"                                                $wwwwwww2                                           ",
"                                                $wwwwwww2                                           ",
"                                                $wwwwwww2                                           ",
"                                                $wwwwwww2                                           ",
"                                                $wwwwwww2                                           ",
"                                                $wwwwwww2                                           ",
"                                                #qwwwwww2                                           ",
"                                                $wwwwwww2                                           ",
"                                                $wwwwwww2                                           ",
"                                                $wwwwwww2                                           ",
"                                    .o43333433345wwwwwwwq3434343434*                                ",
"                                     @qwwqwwwwwwwwwwwwwwwwqqqqqwqqq>                                ",
"                                     @wwwwwwwwwwwwwwwwwwwwwwqwwwqww>                                ",
"                                     #wwwwwwwwwwwwwwwwwwwwwwwwwwwww>                                ",
"                                     #wwwwwwwwwwwwwwwwwwwwwwwwwwwww>                                ",
"                                     @wwwwwwwwwwwwwwwwwwwwwwwwwwwww>                                ",
"                                     +qwwwwwwwwwwwwwwwwwwwwwwwwwwww-                                ",
"                                                                                                    ",
"                                                                                                    ",
"                                                                                                    ",
"                                                                                                    ",
"                                                                                                    ",
"                                                                                                    ",
"                                                                                                    ",
"                                                                                                    ",
"                                                                                                    ",
"                                                                                                    ",
"                                                                                                    ",
"                                                                                                    ",
"                                                                                                    ",
"                                                                                                    ",
"                                                                                                    ",
"                                                                                                    ",
"                                                                                                    ",
"                                                                                                    ",
"                                                                                                    ",
"                                                                                                    ",
"                                                                                                    ",
"                                                                                                    ",
"                                                                                                    ",
"                                                                                                    ",
"                                                                                                    "
};
