/* XPM */
static char *dbf5da91301d44909e358bd2da0585demsTXCO5ARvu5lpe6[] = {
/* columns rows colors chars-per-pixel */
"100 100 44 1 ",
"  c #1E1E1E",
". c #202020",
"X c gray14",
"o c #2A2A2A",
"O c #2C2C2C",
"+ c gray19",
"@ c #353535",
"# c gray22",
"$ c gray24",
"% c #414141",
"& c gray27",
"* c gray29",
"= c gray31",
"- c #505050",
"; c #565656",
": c gray35",
"> c gray37",
", c #626262",
"< c #656565",
"1 c #6A6A6A",
"2 c #717171",
"3 c #767676",
"4 c #797979",
"5 c #7E7E7E",
"6 c #808080",
"7 c gray52",
"8 c #8D8D8D",
"9 c #929292",
"0 c #989898",
"q c gray61",
"w c #A4A4A4",
"e c gray65",
"r c gray66",
"t c #AEAEAE",
"y c gray69",
"u c #B6B6B6",
"i c gray73",
"p c #BCBCBC",
"a c #C3C3C3",
"s c gray78",
"d c #CACACA",
"f c #CDCDCD",
"g c LightGray",
"h c gray83",
/* pixels */
"                                                                                                    ",
"                                                                                                    ",
"                                                                                                    ",
"                                                                                                    ",
"                                                                                                    ",
"                                                                                                    ",
"                                                                                                    ",
"                                                                                                    ",
"                                                                                                    ",
"                                                                                                    ",
"                                                                                                    ",
"                                                                                                    ",
"                                                                                                    ",
"                                                                                                    ",
"                                                                                                    ",
"                                                                                                    ",
"                                                                                                    ",
"                                                                                                    ",
"                                                                                                    ",
"                                                                                                    ",
"                                              O39euaday05>$                                         ",
"                                          .+7aghhhhhgghhhhhd8+                                      ",
"                                         Xqhhhhhhhhhhhhhhhhhhhu<                                    ",
"                                        <ghhhhhhhhhhhhhhhhhhhhhh5                                   ",
"                                       ehhhhhhhhhhhhhhhghhhhhhhh5                                   ",
"                                      ehhhhhhhhhhhhhhhhghhhhhhhh5                                   ",
"                                     eghhhhhhhhhhhdpupdghhhhhhhh5                                   ",
"                                    8hhhhhhhhhhu1.     .:qfhhhhh5                                   ",
"                                   $gggghhhhgd&            2dhhh5                                   ",
"                                   agghhhhhhe.               6gh5                                   ",
"                                  1hhhhhhhhu                  %a-                                   ",
"                                  ghhhhhggd.                                                        ",
"                                 <hhhhhhgh-                                                         ",
"                                 uhhhhhhgi                                                          ",
"                                Oghhhhhhg=                                                          ",
"                                7hhhhhhhd                                                           ",
"                                ihhhhhhhe                                                           ",
"                                fhhhhhhh>                                                           ",
"                               Ohhhhhhhg                                                            ",
"                               ,hhhhhggd                                                            ",
"                               9hhhhhhhu                                                            ",
"                               yhhhhhhh0                                                            ",
"                               ihhhhhhh4                                                            ",
"                               ahhhhhhh,                                                            ",
"                               shhhhhhh;                                                            ",
"                               fhhhhhhh*                                                            ",
"                               ghhhhhhh$                                                            ",
"                               shhhhhhh@                                                            ",
"                               hhhhhhhh#                                                            ",
"                               fhhhhhhh*                                                            ",
"                               dhhhhhhh-                                                            ",
"                               shhhhhhg>                                                            ",
"                               phhhhhhh2                                                            ",
"                               uhhhhhhh9                                                            ",
"                               qhhhhhhht                                                            ",
"                               2hhhhhhha                                                            ",
"                               $hhhhhhhg                                                            ",
"                                hhhhhhgg&                                                           ",
"                                shhhhhgh9                                                           ",
"                                qghhhhhhs                                                           ",
"                                &ghhhhhhh#                                                          ",
"                                 shhhhhhhr                                                          ",
"                                 7hhhhhhhh#                                                         ",
"                                 Ohhhhhhggu                                                         ",
"                                  ehghhhhhh8                  Xq-                                   ",
"                                  .hhhhhhhhh2                *fh5                                   ",
"                                   1hhhhhhhhhrX            #ehhh5                                   ",
"                                    ighhhhhhhhf8+.      .,thhhhh5                                   ",
"                                    Oshhhhhhhhhhhar089ephhhhhhhh5                                   ",
"                                     Odghhhhhhhhhhhhgghhhhhhhhhh5                                   ",
"                                      Ofhhhhhhhhhhhhhhhhhhhhhhhh5                                   ",
"                                       oehhhhhhhhhhhhhhhhhhhhhhh5                                   ",
"                                         =dhhhhhhhhhhhhhhhhhghg0+                                   ",
"                                           2ihhhhhhhhghhhhhhi<  .                                   ",
"                                             .1risggfgdat04+                                        ",
"                                             .                                                      ",
"                                                                                                    ",
"                                                                                                    ",
"                                                                                                    ",
"                                                                                                    ",
"                                                                                                    ",
"                                                                                                    ",
"                                                                                                    ",
"                                                                                                    ",
"                                                                                                    ",
"                                                                                                    ",
"                                                                                                    ",
"                                                                                                    ",
"                                                                                                    ",
"                                                                                                    ",
"                                                                                                    ",
"                                                                                                    ",
"                                                                                                    ",
"                                                                                                    ",
"                                                                                                    ",
"                                                                                                    ",
"                                                                                                    ",
"                                                                                                    ",
"                                                                                                    ",
"                                                                                                    "
};
