/* XPM */
static char *_83a6f111697441ef199d3dcb70798e4wyGki60BZib4LnPY[] = {
/* columns rows colors chars-per-pixel */
"100 100 15 1 ",
"  c #1E1E1E",
". c #202020",
"X c #7B7B7B",
"o c #989898",
"O c #AAAAAA",
"+ c gray70",
"@ c #B4B4B4",
"# c gray73",
"$ c #BCBCBC",
"% c gray76",
"& c gray77",
"* c #CBCBCB",
"= c gray81",
"- c gray82",
"; c gray83",
/* pixels */
"                                                                                                    ",
"                                                                                                    ",
"                                                                                                    ",
"                                                                                                    ",
"                                                                                                    ",
"                                                                                                    ",
"                                                                                                    ",
"                                                                                                    ",
"                                                                                                    ",
"                                                                                                    ",
"                                                                                                    ",
"                                                                                                    ",
"                                                                                                    ",
"                                                                                                    ",
"                                                                                                    ",
"                                                                                                    ",
"                                                                                                    ",
"                                                                                                    ",
"                                                                                                    ",
"                                                                                                    ",
"                                                                                                    ",
"                                                                                                    ",
"                                   o========-==-================-==                                 ",
"                                   #;;;;;;;;;;-;;;;;;;;;;;;;;;;;;--                                 ",
"                                   #;;;;;;;;;;;;;;;;;;;;;;;;;;;;;;-                                 ",
"                                   #;;;;;;;;;;;;;;;;;;;;;;;;;;;;;;;                                 ",
"                                   #;;;;;;;;;;;;;;;;;;;;;;;;;;;;;;;                                 ",
"                                   #;;;;;;;;;;;;;;;;;;;;;;;;;;;;;;;                                 ",
"                                   #;;;;;;;%%%%%%%%%%%%%%%%%%%%%%%$                                 ",
"                                   #;;;;;;;.                                                        ",
"                                   #;;;;;;;.                                                        ",
"                                   #;;;;;;;.                                                        ",
"                                   #;;;;;;;.                                                        ",
"                                   #;;;;;;;.                                                        ",
"                                   #;;;;;;;.                                                        ",
"                                   #;;;;;;;.                                                        ",
"                                   #;;;;;;;.                                                        ",
"                                   #;;;;;;;.                                                        ",
"                                   #;;;;;;;                                                         ",
"                                   #;;;;;;;                                                         ",
"                                   #;;;;;;;.                                                        ",
"                                   #;;;;;;;.                                                        ",
"                                   #;;;;;;;======*==*==========*=&                                  ",
"                                   #;;;;;;;-;;-;;-;;--;;-;-;-;;-;-                                  ",
"                                   #;;;;;;;;;;;;;;;;;;;;;;;;;;;;;-                                  ",
"                                   #;;;;;;;;;;;;;;;;;;;;;;;;;;;;;-                                  ",
"                                   #;;;;;;;;;;;;;;;;;;;;;;;;;;;;;-                                  ",
"                                   #;;;;;;;;;;;;;;;;;;;;;;;;;;;;;-                                  ",
"                                   #;;;;;;;&%&%&&%&%&%&%&%&%&%&%%o                                  ",
"                                   #;;;;;;;.                                                        ",
"                                   #;;;;;;;.                                                        ",
"                                   #;;;;;;;.                                                        ",
"                                   #;;;;;;;.                                                        ",
"                                   #;;;;;;;.                                                        ",
"                                   #;;;;;;;.                                                        ",
"                                   #;;;;;;;.                                                        ",
"                                   #;;;;;;;.                                                        ",
"                                   #;;;;;;;.                                                        ",
"                                   #;;;;;;;.                                                        ",
"                                   #;;;;;;;.                                                        ",
"                                   #;;;;;;;.                                                        ",
"                                   #;;;;;;;.                                                        ",
"                                   #;;;;;;;.                                                        ",
"                                   #;;;;;;;.                                                        ",
"                                   #;;;;;;;.                                                        ",
"                                   #;;;;;;;.                                                        ",
"                                   #;;;;;;;.                                                        ",
"                                   #;;;;;;;.                                                        ",
"                                   #;;;;;;;OOOOOOOOOOOOOOOOOOOOOOOOX                                ",
"                                   #;;;;;;;;;-;;-;;;-;;-;;-;;;-;;;-@                                ",
"                                   #;;;;;;;;;;;;;;;;;;;;;;;;;;;;;;;@                                ",
"                                   #;;;;;;;;;;;;;;;;;;;;;;;;;;;;;;-+                                ",
"                                   #;;;;;;;;;;;;;;;;;;;;;;;;;;;;;;;+                                ",
"                                   #;;;;;;;;;;;;;;;;;;;;;;;;;;;;;;;+                                ",
"                                   @;;;;;;;;;;;;;;;;;;;;;;;;;;;;;;;+                                ",
"                                                                                                    ",
"                                                                                                    ",
"                                                                                                    ",
"                                                                                                    ",
"                                                                                                    ",
"                                                                                                    ",
"                                                                                                    ",
"                                                                                                    ",
"                                                                                                    ",
"                                                                                                    ",
"                                                                                                    ",
"                                                                                                    ",
"                                                                                                    ",
"                                                                                                    ",
"                                                                                                    ",
"                                                                                                    ",
"                                                                                                    ",
"                                                                                                    ",
"                                                                                                    ",
"                                                                                                    ",
"                                                                                                    ",
"                                                                                                    ",
"                                                                                                    ",
"                                                                                                    ",
"                                                                                                    "
};
