/* XPM */
static char *f2ad6e4f0e1c41d2c44ce7b2f9be3c8fpDbtXtXrT4cJVhZn[] = {
/* columns rows colors chars-per-pixel */
"100 100 38 1 ",
"  c #1E1E1E",
". c #222222",
"X c #252525",
"o c #2A2A2A",
"O c #2C2C2C",
"+ c gray20",
"@ c #393939",
"# c #3C3C3C",
"$ c gray26",
"% c gray27",
"& c gray30",
"* c #515151",
"= c gray35",
"- c gray36",
"; c #686868",
": c #717171",
"> c #7B7B7B",
", c #808080",
"< c #868686",
"1 c #8B8B8B",
"2 c gray56",
"3 c #929292",
"4 c gray59",
"5 c #989898",
"6 c gray61",
"7 c #A2A2A2",
"8 c #A7A7A7",
"9 c gray68",
"0 c #B1B1B1",
"q c #B4B4B4",
"w c #B9B9B9",
"e c #BCBCBC",
"r c gray76",
"t c gray77",
"y c #C8C8C8",
"u c #CECECE",
"i c LightGray",
"p c gray83",
/* pixels */
"                                                                                                    ",
"                                                                                                    ",
"                                                                                                    ",
"                                                                                                    ",
"                                                                                                    ",
"                                                                                                    ",
"                                                                                                    ",
"                                                                                                    ",
"                                                                                                    ",
"                                                                                                    ",
"                                                                                                    ",
"                                                                                                    ",
"                                                                                                    ",
"                                                                                                    ",
"                                                                                                    ",
"                                                                                                    ",
"                                                                                                    ",
"                                                                                                    ",
"                                                                                                    ",
"                                                                                                    ",
"                                                                                                    ",
"                                                                                                    ",
"                                                                                                    ",
"                                                                                                    ",
"                                                        2ppppppp$                                   ",
"                                                        7ppppppp&                                   ",
"                                                        7ppppppp&                                   ",
"                                                        7ppppppp&                                   ",
"                                                        7ppppppp&                                   ",
"                                                        7ppppppp&                                   ",
"                                                        7ppppppp&                                   ",
"                                                        7ppppppp&                                   ",
"                                                        7ppppppp&                                   ",
"                                                        7ppppppp&                                   ",
"                                                        7ppppppp&                                   ",
"                                                        7ppppppp&                                   ",
"                                                        7ppppppp&                                   ",
"                                                        7ppppppp&                                   ",
"                                                        7ppppppp&                                   ",
"                                                        7ppppppp&                                   ",
"                                                        7ppppppp&                                   ",
"                                                        7ppppppp&                                   ",
"                                                        7ppppppp&                                   ",
"                                                        7ppppppp&                                   ",
"                                                        7ppppppp&                                   ",
"                                        X=2qyuippppppppppppppppp&                                   ",
"                                      *9ippppppppppppppppppppppp&                                   ",
"                                    $tpppppppppppppppppppppppppp&                                   ",
"                                   <ippppppppppppppppppppppppppp&                                   ",
"                                  6ppppppppppppppppppppppppppppp&                                   ",
"                                 1pppppppppppppppppppppppppppppp&                                   ",
"                                %ppppppppppppitq51111111rppppppp&                                   ",
"                                eppppppppppe$           7ppppppp&                                   ",
"                               *pppppppppu;             7ppppppp&                                   ",
"                               7ppppppppiO              7ppppppp&                                   ",
"                               upppppppp;               7ppppppp&                                   ",
"                              Opppppppp0                7ppppppp&                                   ",
"                              =pppppppp%                7ppppppp&                                   ",
"                              ,pppppppp                 7ppppppp&                                   ",
"                              3pppppppy                 7ppppppp&                                   ",
"                              5pppppppw                 7ppppppp&                                   ",
"                              4pppppppw                 7ppppppp&                                   ",
"                              <pppppppu                 7ppppppp&                                   ",
"                              :pppppppp.                7ppppppp&                                   ",
"                              -pppppppp&                7ppppppp&                                   ",
"                              oppppppppe                7ppppppp&                                   ",
"                               tpppppppp>               7ppppppp&                                   ",
"                               5ppppppppi@              7ppppppp&                                   ",
"                               #pppppppppi1.            7ppppppp&                                   ",
"                                8ppppppppppy;+          7ppppppp&                                   ",
"                                +ippppppppppppiyq9999999ippppppp&                                   ",
"                                 -pppppppppppppppppppppppppppppp&                                   ",
"                                  :ppppppppppppppppppppppppppppp&                                   ",
"                                   =uppppppppppppppppppppppppppp&                                   ",
"                                    o8ippppppppppppppppppppppppp&                                   ",
"                                      O2yppppppppppppppppppppppp&                                   ",
"                                         O;59etuuuuuuuuuuuuuuuuy@                                   ",
"                                                                                                    ",
"                                                                                                    ",
"                                                                                                    ",
"                                                                                                    ",
"                                                                                                    ",
"                                                                                                    ",
"                                                                                                    ",
"                                                                                                    ",
"                                                                                                    ",
"                                                                                                    ",
"                                                                                                    ",
"                                                                                                    ",
"                                                                                                    ",
"                                                                                                    ",
"                                                                                                    ",
"                                                                                                    ",
"                                                                                                    ",
"                                                                                                    ",
"                                                                                                    ",
"                                                                                                    ",
"                                                                                                    ",
"                                                                                                    ",
"                                                                                                    "
};
