/* XPM */
static char *_3b36632bef84cb1de5035b346ceb44eyPBa82LbE8iJMk7c[] = {
/* columns rows colors chars-per-pixel */
"100 100 39 1 ",
"  c #1E1E1E",
". c #222222",
"X c #252525",
"o c #2A2A2A",
"O c gray18",
"+ c gray20",
"@ c #393939",
"# c #3C3C3C",
"$ c gray26",
"% c gray27",
"& c #4C4C4C",
"* c gray30",
"= c #515151",
"- c #5B5B5B",
"; c gray36",
": c #686868",
"> c #717171",
", c #7B7B7B",
"< c #808080",
"1 c gray52",
"2 c gray54",
"3 c gray56",
"4 c #929292",
"5 c gray59",
"6 c gray60",
"7 c gray61",
"8 c gray64",
"9 c #A7A7A7",
"0 c gray68",
"q c #B1B1B1",
"w c #B4B4B4",
"e c gray73",
"r c gray",
"t c gray76",
"y c #C6C6C6",
"u c #C8C8C8",
"i c gray81",
"p c LightGray",
"a c gray83",
/* pixels */
"                                                                                                    ",
"                                                                                                    ",
"                                                                                                    ",
"                                                                                                    ",
"                                                                                                    ",
"                                                                                                    ",
"                                                                                                    ",
"                                                                                                    ",
"                                                                                                    ",
"                                                                                                    ",
"                                                                                                    ",
"                                                                                                    ",
"                                                                                                    ",
"                                                                                                    ",
"                                                                                                    ",
"                                                                                                    ",
"                                                                                                    ",
"                                                                                                    ",
"                                                                                                    ",
"                                                                                                    ",
"                                                                                                    ",
"                                                                                                    ",
"                                                                                                    ",
"                                                                                                    ",
"                                                                                                    ",
"                                                                                                    ",
"                                                                                                    ",
"                                                                                                    ",
"                                                                                                    ",
"                                                                                                    ",
"                                  o;>1564<-O                                                        ",
"                               #6yaaaaaaaaaai8=                                                     ",
"                             +9aaaaaaaaaaaaaaaar%                                                   ",
"                            ;paaaaaaaaaaaaaaaaaaa2                                                  ",
"                           >aaaaaaaaaaaaaaaaaaaaaa7                                                 ",
"                          ;aaaaaaaaaaaaaaaaaaaaaaaa1                                                ",
"                         oppaaaaaaaaaaaaaaaaaaaaaaaa$                                               ",
"                         9apaaaaaaaaaaaappaaaaaaaaaay                                               ",
"                        Opaaaaaaaaaapieeipaaaaaaaaaap=                                              ",
"                        3aaaaaaaaar*.     %qaaaaaaaap0                                              ",
"                        uaaaaaaap,          :pppaaaappX                                             ",
"                       oaaaaaaaa@            oipaaaaap-                                             ",
"                       :aaaaaaa2              :paaaaaa3                                             ",
"                       6aaaaaai                raaaaaaq                                             ",
"                       0aaaaaa:                $aaaaaau                                             ",
"                       raaaaaa+                 paaaaai                                             ",
"                       uaaaaaa                  yaaaaap                                             ",
"                       iaaaaau                  waaaapp                                             ",
"                       ipaaaaw.                 6aaaaaa.                                            ",
"                       iaaaaa0                  2aaaaaa                                             ",
"                       iaaaaa0                  3aaaaap                                             ",
"                       iaaaaa0                  2aaaaaa.                                            ",
"                       iaaaaa0                  2paaaaa                                             ",
"                       iaaaaa0                  2aaaaap                                             ",
"                       iaaaaa0                  3paaaaa.                                            ",
"                       iaaaaa0                  2paaaaa                                             ",
"                       iaaaapp888888888888888888taaaaaa888888888888888888883                        ",
"                       iaaaapppappaappppaappppaaaaaaaaaappaappppaappppaapapa                        ",
"                       iaaaapaaapaaaaappaaaapaaaaaaaaaaapaaaaappaaaapaaapapa                        ",
"                       iaaaaaaaapaaaaaaaaaaapaaaaaaaaaaapaaaaaaaaaaapaaaaapp                        ",
"                       iaaaaaaaaaaaaaaaaaaaaaaaaaaaaaaaaaaaaaaaaaaaaaaaaaaaa                        ",
"                       iaaaaaaaaaaaaaaaaaaaaaaaaaaaaaaaaaaaaaaaaaaaaaaaaaaaa                        ",
"                       iaaaaaaaaaaaaaaaaaaaaaaaaaaaaaaaaaaaaaaaaaaaaaaaaaaaa                        ",
"                      .uaaaaaaaaaaaaaaaaaaaaaaaaaaaaaaaaaaaaaaaaaaaaaaaaaaaa                        ",
"                       @*&&&&&&&&&&&&&&&&&&&&&&&&&&&&&&&&&&&&&&&&&&&&&&&&&&$                        ",
"                                                                                                    ",
"                                                                                                    ",
"                                                                                                    ",
"                                                                                                    ",
"                                                                                                    ",
"                                                                                                    ",
"                                                                                                    ",
"                                                                                                    ",
"                                                                                                    ",
"                                                                                                    ",
"                                                                                                    ",
"                                                                                                    ",
"                                                                                                    ",
"                                                                                                    ",
"                                                                                                    ",
"                                                                                                    ",
"                                                                                                    ",
"                                                                                                    ",
"                                                                                                    ",
"                                                                                                    ",
"                                                                                                    ",
"                                                                                                    ",
"                                                                                                    ",
"                                                                                                    ",
"                                                                                                    ",
"                                                                                                    ",
"                                                                                                    ",
"                                                                                                    ",
"                                                                                                    ",
"                                                                                                    ",
"                                                                                                    ",
"                                                                                                    ",
"                                                                                                    ",
"                                                                                                    ",
"                                                                                                    "
};
