/* XPM */
static char *_9fe1ce9066842439e7c3d5de477addcWbNZABRpveLrNW7n[] = {
/* columns rows colors chars-per-pixel */
"100 100 38 1 ",
"  c #1E1E1E",
". c #202020",
"X c #252525",
"o c #2A2A2A",
"O c gray18",
"+ c gray20",
"@ c #393939",
"# c #3C3C3C",
"$ c gray26",
"% c gray27",
"& c #4C4C4C",
"* c #515151",
"= c #5B5B5B",
"- c #5D5D5D",
"; c #686868",
": c #717171",
"> c #7B7B7B",
", c #808080",
"< c #868686",
"1 c gray54",
"2 c #8D8D8D",
"3 c #929292",
"4 c gray59",
"5 c gray60",
"6 c gray61",
"7 c #A2A2A2",
"8 c gray64",
"9 c gray68",
"0 c #B1B1B1",
"q c #B4B4B4",
"w c #B9B9B9",
"e c gray",
"r c gray76",
"t c gray78",
"y c #C8C8C8",
"u c gray81",
"i c LightGray",
"p c gray83",
/* pixels */
"                                                                                                    ",
"                                                                                                    ",
"                                                                                                    ",
"                                                                                                    ",
"                                                                                                    ",
"                                                                                                    ",
"                                                                                                    ",
"                                                                                                    ",
"                                                                                                    ",
"                                                                                                    ",
"                                                                                                    ",
"                                                                                                    ",
"                                                                                                    ",
"                                                                                                    ",
"                                                                                                    ",
"                                                                                                    ",
"                                                                                                    ",
"                                                                                                    ",
"                                                                                                    ",
"                                                                                                    ",
"                                                                                                    ",
"                                                                                                    ",
"                                                                                                    ",
"                                                                                                    ",
"                                                                                                    ",
"                                                                                                    ",
"                                                                                                    ",
"                                                                                                    ",
"                                                                                                    ",
"                                                                                                    ",
"                                                                                                    ",
"                                                                                                    ",
"                                                                                                    ",
"                                                                                                    ",
"                                                                                                    ",
"                        $&&&&&&&&&&&&&&&&&&&&&&&&&&&&&&&&&&&&&&&&&&&&&&&&&&&@                       ",
"                        ppppppppppppppppppppppppppppppppppppppppppppppppppppy.                      ",
"                        ppppppppppppppppppppppppppppppppppppppppppppppppppppi                       ",
"                        ppppppppppppppppppppppppppppppppppppppppppppppppppppu                       ",
"                        ppppppppppppppppppppppppppppppppppppppppppppppppppppu                       ",
"                        ppppppppppppppppppppppppppppppppppppppppppppppppppppu                       ",
"                        pppppppppppppppppppppppppppppppppppppppppppppppippppu                       ",
"                        pppppppppppppppppppppppppppppppppppppppppppppppippppu                       ",
"                        277777777777777777777ppppppr777777777777777777iippiiu                       ",
"                                             pppppp2                  9pppppu                       ",
"                                            .pppppp1                  9pppppu                       ",
"                                             pppppp1                  9pppppu                       ",
"                                            .pppppi2                  9pppppu                       ",
"                                             pppppp1                  9pppppu                       ",
"                                            .pppppi2                  9pppppu                       ",
"                                             pppppp1                  9pppppu                       ",
"                                            .pppppp5                  wpppppi                       ",
"                                             iippppq                  ypppppu                       ",
"                                             iippppt                  ipppppt                       ",
"                                             upppppi                 +ppppppw                       ",
"                                             ypppppp$                ;pppppp9                       ",
"                                             0ppppppw               .ypppppp5                       ",
"                                             2ppppppp;              2ppppppp;                       ",
"                                             =pppppppuo            @ipppppppO                       ",
"                                             Xipppppppi;          >ppppppppy                        ",
"                                              9ipppppppp0%     .&eppppppppp3                        ",
"                                              *ipppppppppiiuwwuppppppppppppo                        ",
"                                               tppppppppppppppppppppppppii7.                        ",
"                                               $ppppppppppppppppppppppppppo                         ",
"                                                <pppppppppppppppppppppppp-                          ",
"                                                 6pppppppppppppppppppppp:                           ",
"                                                  1pppppppppppppppppppi-                            ",
"                                                   %epppppppppppppppp7+                             ",
"                                                     *7ppppppiiippy6#                               ",
"                                                        O=,354<:-o  .                               ",
"                                                                                                    ",
"                                                                                                    ",
"                                                                                                    ",
"                                                                                                    ",
"                                                                                                    ",
"                                                                                                    ",
"                                                                                                    ",
"                                                                                                    ",
"                                                                                                    ",
"                                                                                                    ",
"                                                                                                    ",
"                                                                                                    ",
"                                                                                                    ",
"                                                                                                    ",
"                                                                                                    ",
"                                                                                                    ",
"                                                                                                    ",
"                                                                                                    ",
"                                                                                                    ",
"                                                                                                    ",
"                                                                                                    ",
"                                                                                                    ",
"                                                                                                    ",
"                                                                                                    ",
"                                                                                                    ",
"                                                                                                    ",
"                                                                                                    ",
"                                                                                                    ",
"                                                                                                    ",
"                                                                                                    "
};
