/* XPM */
static char *_78edb283f7546a4b041af2325b73ff0gkwiSPBh0TsqESpO[] = {
/* columns rows colors chars-per-pixel */
"100 100 38 1 ",
"  c #1E1E1E",
". c #202020",
"X c #252525",
"o c #2A2A2A",
"O c #2C2C2C",
"+ c gray20",
"@ c #393939",
"# c #3C3C3C",
"$ c gray26",
"% c gray27",
"& c #4C4C4C",
"* c #515151",
"= c gray35",
"- c #5D5D5D",
"; c #686868",
": c #717171",
"> c #7B7B7B",
", c #808080",
"< c #868686",
"1 c gray54",
"2 c gray56",
"3 c #929292",
"4 c gray59",
"5 c gray60",
"6 c gray61",
"7 c #A2A2A2",
"8 c #A7A7A7",
"9 c #AEAEAE",
"0 c #B1B1B1",
"q c #B7B7B7",
"w c gray73",
"e c gray",
"r c gray76",
"t c #C6C6C6",
"y c #CBCBCB",
"u c gray81",
"i c LightGray",
"p c gray83",
/* pixels */
"                                                                                                    ",
"                                                                                                    ",
"                                                                                                    ",
"                                                                                                    ",
"                                                                                                    ",
"                                                                                                    ",
"                                                                                                    ",
"                                                                                                    ",
"                                                                                                    ",
"                                                                                                    ",
"                                                                                                    ",
"                                                                                                    ",
"                                                                                                    ",
"                                                                                                    ",
"                                                                                                    ",
"                                                                                                    ",
"                                                                                                    ",
"                                                                                                    ",
"                                                                                                    ",
"                                                                                                    ",
"                                                                                                    ",
"                                                                                                    ",
"                                                                                                    ",
"                                   @yuuuuuuuuuuuuuuuutw96;O                                         ",
"                                   &pppppppppppppppppppppppy2O                                      ",
"                                   &pppppppppppppppppppppppppi8o                                    ",
"                                   &pppppppipppppppppppppppppppu-                                   ",
"                                   &pppppppippppppppppppppppppppp:                                  ",
"                                   &pppppppiiiiipiipiipppppppppppp-                                 ",
"                                   &pppppppi9999999qypppppppppppppp+                                ",
"                                   &ppppppi7          +;ypppppppppp8                                ",
"                                   &ppppppp7            .1ippppppppp#                               ",
"                                   &ppppppp7              @ipppppppp5                               ",
"                                   &ppppppp7               >ppppppppt                               ",
"                                   &ppppppp7                eppppppppo                              ",
"                                   &ppppppp7                &pppppppp-                              ",
"                                   &ppppppp7                .ippppppp:                              ",
"                                   &ppppppp7                .uppppppp<                              ",
"                                   &ppppppp7                 wppppppp4                              ",
"                                   &ppppppp7                 wppppppp5                              ",
"                                   &ppppppp7                 yppppppp3                              ",
"                                   &ppppppp7                 pppppppp,                              ",
"                                   &ppppppp7                %pppppppp-                              ",
"                                   &ppppppp7                0ppppppppO                              ",
"                                   &ppppppp7               ;ppppppppu                               ",
"                                   &ppppppp7              oipppppppp7                               ",
"                                   &ppppppp7             ;uipppppppp*                               ",
"                                   &ppppppp7           $eipppppppppe                                ",
"                                   &pppppppr11211124qtipppppppppppp%                                ",
"                                   &pppppppppiipippippiipppppppppp1                                 ",
"                                   &ppppppppppppppppppppppppppppp6                                  ",
"                                   &pppppppppppppppppppppppppppi<                                   ",
"                                   &ppppppppppppppppppppppiipit$                                    ",
"                                   &pppppppppppppppppppipppi9*                                      ",
"                                   &pppppipppppppppppiutq1=X                                        ",
"                                   &pppppii8. .  . .                                                ",
"                                   &ppppppp7                                                        ",
"                                   &ppppppp7                                                        ",
"                                   &ppppppp7                                                        ",
"                                   &ppppppp7                                                        ",
"                                   &ppppppp7                                                        ",
"                                   &ppppppp7                                                        ",
"                                   &ppppppp7                                                        ",
"                                   &ppppppp7                                                        ",
"                                   &ppppppp7                                                        ",
"                                   &ppppppp7                                                        ",
"                                   &ppppppp7                                                        ",
"                                   &ppppppp7                                                        ",
"                                   &ppppppp7                                                        ",
"                                   &ppppppp7                                                        ",
"                                   &ppppppp7                                                        ",
"                                   &ppppppp7                                                        ",
"                                   &ppppppp7                                                        ",
"                                   &ppppppp7                                                        ",
"                                   &ppppppp7                                                        ",
"                                   $ppppppp2                                                        ",
"                                                                                                    ",
"                                                                                                    ",
"                                                                                                    ",
"                                                                                                    ",
"                                                                                                    ",
"                                                                                                    ",
"                                                                                                    ",
"                                                                                                    ",
"                                                                                                    ",
"                                                                                                    ",
"                                                                                                    ",
"                                                                                                    ",
"                                                                                                    ",
"                                                                                                    ",
"                                                                                                    ",
"                                                                                                    ",
"                                                                                                    ",
"                                                                                                    ",
"                                                                                                    ",
"                                                                                                    ",
"                                                                                                    ",
"                                                                                                    ",
"                                                                                                    ",
"                                                                                                    "
};
