/* XPM */
static char *_0e3ca5a0c0d4db6df2d6260f9a79d2fzrczKSbRZm0Ktfp2[] = {
/* columns rows colors chars-per-pixel */
"100 100 6 1 ",
"  c black",
". c #464646",
"X c #5D5D5D",
"o c yellow",
"O c gray62",
"+ c #E4DDCB",
/* pixels */
"++++++++++++++++++++++++++++++++++++++++++++++++++++++++++++++++++++++++++++++++++++++++++++++++++++",
"+XXXXXXXXXXXXXXXXXXXXXXXXXXXXXXXXXXXXXXXXXXXXXXXXXXXXXXXXXXXXXXXXXXXXXXXXXXXXXXXXXXXXXXXXXXXXXXXXXX+",
"+X...............................................XX...............................................X+",
"+X.OOOOOOOOO...OOOOOOOOO...OOOOOOOOO...OOOOOOOOO.XX.OOOOOOOOO...OOOOOOOOO...OOOOOOOOO...OOOOOOOOO.X+",
"+X.OOOOOOOOO...OOOOOOOOO...OOOOOOOOO...OOOOOOOOO.XX.OOOOOOOOO...OOOOOOOOO...OOOOOOOOO...OOOOOOOOO.X+",
"+X.OOOOOOOOO...OOOOOOOOO...OOOOOOOOO...OOOOOOOOO.XX.OOOOOOOOO...OOOOOOOOO...OOOOOOOOO...OOOOOOOOO.X+",
"+X.OOOOOOOOO...OOOOOOOOO...OOOOOOOOO...OOOOOOOOO....OOOOOOOOO...OOOOOOOOO...OOOOOOOOO...OOOOOOOOO.X+",
"+X.OOOOOOOOO...OOOOOOOOO...OOOOOOOOO...OOOOOOOOO....OOOOOOOOO...OOOOOOOOO...OOOOOOOOO...OOOOOOOOO.X+",
"+X.OOOOOOOOO...OOOOOOOOO...OOOOOOOOO...OOOOOOOOO.XX.OOOOOOOOO...OOOOOOOOO...OOOOOOOOO...OOOOOOOOO.X+",
"+X.OOOOOOOOO...OOOOOOOOO...OOOOOOOOO...OOOOOOOOO.XX.OOOOOOOOO...OOOOOOOOO...OOOOOOOOO...OOOOOOOOO.X+",
"+X.OOOOOOOOO...OOOOOOOOO...OOOOOOOOO...OOOOOOOOO.XX.OOOOOOOOO...OOOOOOOOO...OOOOOOOOO...OOOOOOOOO.X+",
"+X.OOOOOOOOO...OOOOOOOOO...OOOOOOOOO...OOOOOOOOO.XX.OOOOOOOOO...OOOOOOOOO...OOOOOOOOO...OOOOOOOOO.X+",
"+X...............................................XX...............................................X+",
"+XXXXXXXXXXXXXXXXXXXXXXXXXXXXXXXXXXXXXXXXXXXXXXXXXXXXXXXXXXXXXXXXXXXXXXXXXXXXXXXXXXXXXXXXXXXXXXXXXX+",
"+Xooo          oooooooooo          oooooooooo          oooooooooo          oooooooooo          oooX+",
"+Xoo          oooooooooo          oooooooooo          oooooooooo          oooooooooo          ooooX+",
"+Xo          oooooooooo          oooooooooo          oooooooooo          oooooooooo          oooooX+",
"+X          oooooooooo          oooooooooo          oooooooooo          oooooooooo          ooooooX+",
"+X         oooooooooo          oooooooooo          oooooooooo          oooooooooo          oooooooX+",
"+X        oooooooooo          oooooooooo          oooooooooo          oooooooooo          ooooooooX+",
"+X       oooooooooo          oooooooooo          oooooooooo          oooooooooo          oooooooooX+",
"+X      oooooooooo          oooooooooo          oooooooooo          oooooooooo          ooooooooooX+",
"+X     oooooooooo          oooooooooo          oooooooooo          oooooooooo          oooooooooo X+",
"+X    oooooooooo          oooooooooo          oooooooooo          oooooooooo          oooooooooo  X+",
"+X   oooooooooo          oooooooooo          oooooooooo          oooooooooo          oooooooooo   X+",
"+X  oooooooooo          oooooooooo          oooooooooo          oooooooooo          oooooooooo    X+",
"+X oooooooooo          oooooooooo          oooooooooo          oooooooooo          oooooooooo     X+",
"+Xoooooooooo          oooooooooo          oooooooooo          oooooooooo          oooooooooo      X+",
"+Xooooooooo          oooooooooo          oooooooooo          oooooooooo          oooooooooo       X+",
"+Xoooooooo          oooooooooo          oooooooooo          oooooooooo          oooooooooo        X+",
"+Xooooooo          oooooooooo          oooooooooo          oooooooooo          oooooooooo         X+",
"+Xoooooo          oooooooooo          oooooooooo          oooooooooo          oooooooooo          X+",
"+Xooooo          oooooooooo          oooooooooo          oooooooooo          oooooooooo          oX+",
"+Xoooo          oooooooooo          oooooooooo          oooooooooo          oooooooooo          ooX+",
"+Xooo          oooooooooo          oooooooooo          oooooooooo          oooooooooo          oooX+",
"+Xoo          oooooooooo          oooooooooo          oooooooooo          oooooooooo          ooooX+",
"+Xo          oooooooooo          oooooooooo          oooooooooo          oooooooooo          oooooX+",
"+X          oooooooooo          oooooooooo          oooooooooo          oooooooooo          ooooooX+",
"+X         oooooooooo          oooooooooo          oooooooooo          oooooooooo          oooooooX+",
"+X        oooooooooo          oooooooooo          oooooooooo          oooooooooo          ooooooooX+",
"+X       oooooooooo          oooooooooo          oooooooooo          oooooooooo          oooooooooX+",
"+X      oooooooooo          oooooooooo          oooooooooo          oooooooooo          ooooooooooX+",
"+X     oooooooooo          oooooooooo          oooooooooo          oooooooooo          oooooooooo X+",
"+X    oooooooooo          oooooooooo          oooooooooo          oooooooooo          oooooooooo  X+",
"+X   oooooooooo          oooooooooo          oooooooooo          oooooooooo          oooooooooo   X+",
"+X  oooooooooo          oooooooooo          oooooooooo          oooooooooo          oooooooooo    X+",
"+X oooooooooo          oooooooooo          oooooooooo          oooooooooo          oooooooooo     X+",
"+Xoooooooooo          oooooooooo          oooooooooo          oooooooooo          oooooooooo      X+",
"+Xooooooooo          oooooooooo          oooooooooo          oooooooooo          oooooooooo       X+",
"+Xoooooooo          oooooooooo          oooooooooo          oooooooooo          oooooooooo        X+",
"+Xooooooo          oooooooooo          oooooooooo          oooooooooo          oooooooooo         X+",
"+Xoooooo          oooooooooo          oooooooooo          oooooooooo          oooooooooo          X+",
"+Xooooo          oooooooooo          oooooooooo          oooooooooo          oooooooooo          oX+",
"+Xoooo          oooooooooo          oooooooooo          oooooooooo          oooooooooo          ooX+",
"+Xooo          oooooooooo          oooooooooo          oooooooooo          oooooooooo          oooX+",
"+Xoo          oooooooooo          oooooooooo          oooooooooo          oooooooooo          ooooX+",
"+Xo          oooooooooo          oooooooooo          oooooooooo          oooooooooo          oooooX+",
"+X          oooooooooo          oooooooooo          oooooooooo          oooooooooo          ooooooX+",
"+X         oooooooooo          oooooooooo          oooooooooo          oooooooooo          oooooooX+",
"+X        oooooooooo          oooooooooo          oooooooooo          oooooooooo          ooooooooX+",
"+X       oooooooooo          oooooooooo          oooooooooo          oooooooooo          oooooooooX+",
"+X      oooooooooo          oooooooooo          oooooooooo          oooooooooo          ooooooooooX+",
"+X     oooooooooo          oooooooooo          oooooooooo          oooooooooo          oooooooooo X+",
"+X    oooooooooo          oooooooooo          oooooooooo          oooooooooo          oooooooooo  X+",
"+X   oooooooooo          oooooooooo          oooooooooo          oooooooooo          oooooooooo   X+",
"+X  oooooooooo          oooooooooo          oooooooooo          oooooooooo          oooooooooo    X+",
"+X oooooooooo          oooooooooo          oooooooooo          oooooooooo          oooooooooo     X+",
"+Xoooooooooo          oooooooooo          oooooooooo          oooooooooo          oooooooooo      X+",
"+Xooooooooo          oooooooooo          oooooooooo          oooooooooo          oooooooooo       X+",
"+Xoooooooo          oooooooooo          oooooooooo          oooooooooo          oooooooooo        X+",
"+Xooooooo          oooooooooo          oooooooooo          oooooooooo          oooooooooo         X+",
"+Xoooooo          oooooooooo          oooooooooo          oooooooooo          oooooooooo          X+",
"+Xooooo          oooooooooo          oooooooooo          oooooooooo          oooooooooo          oX+",
"+Xoooo          oooooooooo          oooooooooo          oooooooooo          oooooooooo          ooX+",
"+Xooo          oooooooooo          oooooooooo          oooooooooo          oooooooooo          oooX+",
"+Xoo          oooooooooo          oooooooooo          oooooooooo          oooooooooo          ooooX+",
"+Xo          oooooooooo          oooooooooo          oooooooooo          oooooooooo          oooooX+",
"+X          oooooooooo          oooooooooo          oooooooooo          oooooooooo          ooooooX+",
"+X         oooooooooo          oooooooooo          oooooooooo          oooooooooo          oooooooX+",
"+X        oooooooooo          oooooooooo          oooooooooo          oooooooooo          ooooooooX+",
"+X       oooooooooo          oooooooooo          oooooooooo          oooooooooo          oooooooooX+",
"+X      oooooooooo          oooooooooo          oooooooooo          oooooooooo          ooooooooooX+",
"+X     oooooooooo          oooooooooo          oooooooooo          oooooooooo          oooooooooo X+",
"+X    oooooooooo          oooooooooo          oooooooooo          oooooooooo          oooooooooo  X+",
"+X   oooooooooo          oooooooooo          oooooooooo          oooooooooo          oooooooooo   X+",
"+X  oooooooooo          oooooooooo          oooooooooo          oooooooooo          oooooooooo    X+",
"+XXXXXXXXXXXXXXXXXXXXXXXXXXXXXXXXXXXXXXXXXXXXXXXXXXXXXXXXXXXXXXXXXXXXXXXXXXXXXXXXXXXXXXXXXXXXXXXXXX+",
"+X...............................................XX...............................................X+",
"+X.OOOOOOOOO...OOOOOOOOO...OOOOOOOOO...OOOOOOOOO.XX.OOOOOOOOO...OOOOOOOOO...OOOOOOOOO...OOOOOOOOO.X+",
"+X.OOOOOOOOO...OOOOOOOOO...OOOOOOOOO...OOOOOOOOO.XX.OOOOOOOOO...OOOOOOOOO...OOOOOOOOO...OOOOOOOOO.X+",
"+X.OOOOOOOOO...OOOOOOOOO...OOOOOOOOO...OOOOOOOOO.XX.OOOOOOOOO...OOOOOOOOO...OOOOOOOOO...OOOOOOOOO.X+",
"+X.OOOOOOOOO...OOOOOOOOO...OOOOOOOOO...OOOOOOOOO.XX.OOOOOOOOO...OOOOOOOOO...OOOOOOOOO...OOOOOOOOO.X+",
"+X.OOOOOOOOO...OOOOOOOOO...OOOOOOOOO...OOOOOOOOO....OOOOOOOOO...OOOOOOOOO...OOOOOOOOO...OOOOOOOOO.X+",
"+X.OOOOOOOOO...OOOOOOOOO...OOOOOOOOO...OOOOOOOOO....OOOOOOOOO...OOOOOOOOO...OOOOOOOOO...OOOOOOOOO.X+",
"+X.OOOOOOOOO...OOOOOOOOO...OOOOOOOOO...OOOOOOOOO.XX.OOOOOOOOO...OOOOOOOOO...OOOOOOOOO...OOOOOOOOO.X+",
"+X.OOOOOOOOO...OOOOOOOOO...OOOOOOOOO...OOOOOOOOO.XX.OOOOOOOOO...OOOOOOOOO...OOOOOOOOO...OOOOOOOOO.X+",
"+X.OOOOOOOOO...OOOOOOOOO...OOOOOOOOO...OOOOOOOOO.XX.OOOOOOOOO...OOOOOOOOO...OOOOOOOOO...OOOOOOOOO.X+",
"+X...............................................XX...............................................X+",
"+XXXXXXXXXXXXXXXXXXXXXXXXXXXXXXXXXXXXXXXXXXXXXXXXXXXXXXXXXXXXXXXXXXXXXXXXXXXXXXXXXXXXXXXXXXXXXXXXXX+",
"++++++++++++++++++++++++++++++++++++++++++++++++++++++++++++++++++++++++++++++++++++++++++++++++++++"
};
