/* XPM */
static char *_cf57b2a2943466086bb70863d2eed4ah2xS1vImeGvALfRv[] = {
/* columns rows colors chars-per-pixel */
"100 100 6 1 ",
"  c gray6",
". c #33312C",
"X c #3A3A3A",
"o c #5D5D5D",
"O c #E4DDCB",
"+ c white",
/* pixels */
"OOOOOOOOOOOOOOOOOOOOOOOOOOOOOOOOOOOOOOOOOOOOOOOOOOOOOOOOOOOOOOOOOOOOOOOOOOOOOOOOOOOOOOOOOOOOOOOOOOOO",
"OooooooooooooooooooooooooooooooooooooooooooooooooOO++++++++++++++++++++++++++++++++++++++++++++++++O",
"OooooooooooooooooooooooooooooooooooooooooooooooooOO+++++++++++++++++++XX+++++++++++++++++++++++++++O",
"OooooooooooooooooooooooooooooooooooooooooooooooooOO++++++++++++++++++X+++++++++++++++++++++++++++++O",
"OooooooooooooooooooooooooooooooooooooooooooooooooOO++++++++++++++++++++++++++++++++++++++++++++++++O",
"OooooooooooooooooooooooooooooooooooooooooooooooooOO++++++++++++++++++++++++++++++++++++++++++++++++O",
"OooooooooooooooooooooooooooooooooooooooooooooooooOO+++++++++++++++++++++++++++++++X++++++++++++++++O",
"OooooooooooooooooooooooooooooooooooooooooooooooooOO+++++++++++++++++++++++++++++++X++++++++++++++++O",
"OooooooooooooooooooooooooooooooooooooooooooooooooOO++++++++++++++++++++++++++++++++++++++++++++++++O",
"OooooooooooooooooooooooooooooooooooooooooooooooooOO++++++++++++++++++++++++++++++X+XXXXXX++++++++++O",
"OooooooooooooooooooooooooooooooooooooooooooooooooOO+++++++++++++++++++++++++++++X+XXXXXXX++++++++++O",
"Oooooooooooooooooooooooooooooo    oooooooooooooooOO+++++++++++++++++++++++++++++++XXXXXXX++++++++++O",
"Oooooooooooo oooooooooooooooo     oooooooooooooooOO++++++++++++++X+++++++++++++X++XXXXXX+++XX++++++O",
"Ooooooooooooo ooooooooooooooo    ooooooooooooooooOO+++++++++++++X++++++++++++XX+X+++++++++XX++++++XO",
"Oooooooooooooo ooooooooooooo     o   ooooooooooooOO+++++++++++++X+++++++++++X++X++++XXX+++X+++++++XO",
"Ooooooooooooooo oooooooooo      o oooooooooooooooOO++++++++++++X+++++++++++++++X++++++++++++++++++XO",
"Oooooooooooooooo oooooooooo    oo oooooooooooooooOO++++++X+++++X++++++++++++++X++++++++++++++++++X+O",
"Ooooooooooooooooo o oooooo      oooooooooooooooooOO++++++X++++X++++++++++++++X+++++++++++++++++++X+O",
"Oooooooooooooooooo ooooooo    oooooooooooooooooooOO++++++X++++X++++++++++++++X+++++++++++++++++++X+O",
"Oooooooooooooooooo oooooooo oooooooooooooooooooooOO++++++X+++X++++++++++++++X++++++++++++++++++++X+O",
"Ooooooooooooooooooo oooooooo     ooooooooooooooooOO++++++X++X++++++++++++++X+++++++++++++++++++++X+O",
"Oooooooooooooooooooo ooooooooooooooooooooo ooooooOO++++++X++X+++++++++++++X+++++++++++++++++++++X++O",
"Ooooooooooooooooooooo ooooooooooo oooo ooo ooooooOO++++++X+X++++++++++++++X+++++++++++++++++++++X++O",
"Ooooooooooooooooo  ooo oooooooooo oooooooooo ooooOO++++++X+X++++++++XXXX+X++++++++++++++++++++++X++O",
"Ooooooooooooooooooo  oo ooooooooo ooooooo o      OO++++++XX++++++++X++++XXXXXXX+++++++++++++++++X++O",
"Ooooooooooooooooooooo    ooooooooo ooooo o       OO+++++++XX+++++++X+++++++++X+XXXXXX++++++++++X+++O",
"Oooooooooooooooooooooooo  oooooooo ooooooo       OO+++++++X+++++++X+++++++++++X++++++XXXXXXX+++X+++O",
"Oooooooooooooooooooooooooo  oooooo oooo oo      oOOXX+++++X++++++X+++++++++++++X++++++++++++XXXX+++O",
"Oooooooooooooooooooooooooooo   ooo oo  ooooooooooO.X++++++X++++++X++++++++++++++X++++++++++++++++++O",
"Ooooooooooooooooooooooooooooooo  oo  ooooooo   ooO.+++++++X+++++X++XXXX+X+++++++XXXX+++++++++++++++O",
"Ooooooooooooooooooo    oooooooooo   oooooooooooooOO+++++++X++++X++++++++++++++++++X++++++++++++++++O",
"Oooooooooooooooooooooooooo oo ooooo oooooooooo   .OX++++++X+++X++++++++++++++++++++X+++++++++++++++O",
"Oooooooooooooooooooooooooooo oooooo ooooooooo    .OX++++++X+++X+++++++++++X+X+++++++X++++++++++++++O",
"Ooooooooooooooooooooooooooo ooooooo ooooooooo    O.+++++++X++X+++++++++++++++++++++++X+++++++++++++O",
"Ooooooooooooooooooooooooooo oooooooo ooooooo     O.XX+++XXXXX+++++++++++++++++++++++++X++++++++++++O",
"Oooooooooooooooooooooooooo ooooooooo  oooo      o..+++++++X+XXXXXX+++++++++++++X+++++++++++++++++++O",
"Ooooooooooooooooooooooooo oooooooooo oooooo    o ..++++++++X+XXXXXX++++++++++++++++++++++++++++++++O",
"Oooooooooooooooooooooooo oooooooooo  ooooo     oo.O+++++++XX+XXXXXX++++++++++++++++++++++++++++++++O",
"Ooooooooooooooooooooooo oooooooooooo ooooo    ooo.O+++++++XX+XXXXXXX+++++++++++++++++++++++++++++++O",
"Ooooooooooooo  ooooooo oooooooooooooo ooooo  oooo.O++++++X++++XXXXXX+++++++++++++++++++++++++++++++O",
"O  ooo ooooooooooooooo oooooooooooooo oooooo     OO+++++X+++X+XXXXXX++++XX+++++++++++++++++++++++++O",
"Ooooooooooooooooooooo ooooooooooooooo ooooooooo  OO++++X+++++++XXXXXX++X+++++++++++++++++++++++++++O",
"Oooooooooooooooooooo ooooooooo oooooo oooooooo   .O+++XX++++XXX+XXXXX++++++++++++++++++++++++++++++O",
"Ooooooooooooooo     ooooooooooo oooooo ooooooo   ..X++X+++++X+++XXXXX+X+++++++XXXX+++++++++++++++++O",
"Oooooooooooooo     ooo   ooooooo  oooo      oo   .O++XX+++++X++++XXXXX+++++++++XXX+++++++++++++++++O",
"Ooooooooooooooo    oo     oooooooo ooo  ooo      ..++XX++++++++++++++X++X+++++++XX+++++++++++++++++O",
"Ooooooooooooooo   oooo     oooooooo ooo oo       .O+XXX++X+++XXXX+XXX+XX+XX+++++++X++++++++++++++++O",
"Oooooooooooooo    oooo     ooooooooo  o oo       .O+XXXX+++++XXXX++XXX+++++X++++++X++++++++++++++++O",
"Oooooooooooooo     oooo    oooo  ooooo o o       .OXXXXX++++X++++XX+++++++++X++++++X+++++++++++XX++O",
"OOOO.OOOOOOOOO.....OOOO.....OO.OOOOOOOO..OO..OOO........OOOOOO...OOOOOOOOOOOO..OOOO..OOOOOOOOOOOOOOO",
"OOOOO..OOOOOO......O........OOOOOOOOOOOO..OOO.OO..OO...OOOO...OOOOOOOOO..OOOOOO.OOOOOOOOOOOOOOOOOOOO",
"O++++++++++++X+++++XXXXXXXXX+X+++++++XXXX+X++X++XO.        oooooooooooooooooooo    o ooooooooooooooO",
"O+++++++++++X++++++XXXXXXXXXX+++++++++XXXXXXXXXXX..         oooooooooo  ooooooo    ooooooooooooooooO",
"O++++++++++X+++++++XXXX+++++X++++XX+++XXXX+XXXXXX..     oooooooooooooooooooooo      oooooooooooooooO",
"O++++++++++++++++++XXXXX+XXX++++++++++XXXXXXX+X++..    o ooooooooooooooooooooo    oooooooooooooooooO",
"O++++++++++++++++++XXXXX++X+++++++++++XXXXXX+X+XX..      ooooooooooooooooooooo    oooooooooooooooooO",
"O++++XX++++++++++++XXX+++++XXXXX+++++++XXXXXXXXXX.O          ooooooooooooooooo   oooo oooooooooooooO",
"O++++++++++++++++++XX+++X+++++++++++++++XXXXXXXXX.Oo         ooooooooooooooooo   ooooo     ooooooooO",
"O+++++++++++++++++++X+++++++++XX+++++XXXXXXXXXXX+..o        o oooooooooooooooo  ooo oooooooooooooooO",
"O+++++++++++++++++++X++++++++++++XXXX+XXXXXXXXXXX..         oo  oooooooooooooo    oooooooooooooooooO",
"O+++++++++++++XXXX++X+++++++XXXXX+++XX+++XXXXXXXX.Oooo      oooo  ooooooooooo     oooooooooooooooooO",
"O+++++++++++++++++++X+++XXXX++++++++X+++++XXXXXXXOOoooo     oooooo oooooooooo    ooooooooooooooooooO",
"O+++++++++++++++++++XXXX++++++++++++++++XXXXXXX++OOooooo   oooo ooo  ooooooo     o   ooooooooooooooO",
"O+++++++++++++++++++XX+X+++++++++++++++X++++++XX+OOoooooo   oooo  ooo  ooo      o oooooooooooooooooO",
"O++++++++++++++++++X+X++++++++++++++++XXXX+XXXX++OOoooooooooooooooooo o ooo    oo oooooooooooooooooO",
"O+++++++++++++++++X++X+++++++++++++++XXXXX+++X+++OOoooooooooooooooo oo o       ooooooooooooooooooooO",
"O+++++++XXXXX++++X++++++++X+++++++++XXXX+++++XXX+OOooooooooooooo ooooo ooo    oooooooooooooooooooooO",
"O+++++++XXXXXX+XX++++++++++++++++++XXX++X++++XXXX.Oooooooooooooo ooooo oooo  ooooooooooooooooooooooO",
"O+++++X+XXXX++X+++++++++++++++++++XX++++X+++XXXXX..oooooooooooooo oooo ooooo     ooooooooooooooooooO",
"O+++++++XXXXXX+++++++++++++++++++XX+++++X+XXXXXXX.Ooooooooooooooo  oooo ooooooo  ooooooooooooooooooO",
"O++++++++XXXX+++++++++X+++X+++++XX++++++X+XXXXXXX.Ooooooooooooooooooooo ooooooooo oooo ooooooooooooO",
"O++++++++XXXX++++++++++XX++++++XXXXX+++++XXXXXX++OOoooooooooo    o oooo oooooooooo  oooooooo ooooooO",
"O+++++++++XXX+++++++++++++++++X++++++++++X+XX++X+OOo    ooo      ooooooo ooooooooooo   ooooo ooooooO",
"O++++++XXX+++++++++++++++++++XX++++++++++X+X++++X.Ooooooooo      ooooooo ooooooooooooo ooooooooooooO",
"O++++++XX++X+++++++++++++++++X+++++++++++XX+X++++O.oooooo       oooooooo ooooooooooooooooooooooooooO",
"O+++++XX++++X+++++++++++++++X+++++++++++++X+X++++OO  oo         oooooooo ooooooooooooooooooooooooooO",
"O++++X++X+++++++++++++++++++X++++++++++++XX+X++++OOoo o        oooo ooooo oooooooooooooooooooooooooO",
"O+++X+++X++++++++++++++++++X+++++++++++++XX+X++++OOooo         ooooo      ooooooooooooo    ooooooooO",
"O++++++++X++++++++++++++++X+++++++++++++X+X+X++++OOoooo   oo  ooo    oooo o  ooooooooo     ooooooooO",
"O++++++++X+++++++++++++++X++++++++++++++X++XX++++OOoooooo ooooooooooooooo ooo  ooooooo    oooooooooO",
"O+++++++++X++++++++++++++X+++++++++++++XX++XX++++OOooooooooooooooooooooooo oooo  oooo     o   oooooO",
"O++++++++++X++++++++++++X++++++++++++++X+XXXX++++OO   oooooooooooooooooooo oooooo        o ooooooooO",
"O++++X+++++X+++++++++++X+++++++++++++++X+++XX++++OOooooooooooooooooooooooo oooooooo     oo ooooooooO",
"O+++++X+++++X++++XX+++++++++++++++++++X+++++X++++OOoooooooooooooooooooooooo  oooooo     oooooooooooO",
"O+++++++++++X+++++++++++++++++++++++++X+++++XX+++OOoooooooooooooooooooooooo ooooooo      ooooooooooO",
"O++++++++++++X+++++++++++++++++++++++X++++++XX+++OOoooooooooooooooooooooooo oooooooo ooooooooooooooO",
"O++++++++++++X+++++++++++++++++++++++X++++++XX+++OOoooooooooooooooooooooooo ooooooooo     oooooooooO",
"O+++X+++++++++X++X++++++++++++++++++X++++++++X+++OOooooooooooooooooooooooooo ooooooooooooooooooooooO",
"O++++++++++++X+X++++++++++++++++++++X++++++++X+++OOooooooooooooooooooooooooo oooooooooooooooooo oooO",
"O++++++++++++++X+++XXX+++X+++++++++X+++++++++++++OOooooooooooooooooooooooooooooooooooooooooooooooooO",
"O+++++++++++XXXXXXXXXXX++++++++++++X+++++++++++++OOooooooooooooooooooooooooooooooooooooooooooooooooO",
"O+++++++++++XXXXXXXXXXX+++++++++++X++++++++++++++OOooooooooooooooooooooooooooooooooooooooooooooooooO",
"O++++++++++XXXXXXXXXXXX+++++X+++++X++++++++++++++OOooooooooooooooooooooooooooooooooooooooooooooooooO",
"O+++++++++XXXXXXXXXXX+++++++X++++++++++++++++++++OOooooooooooooooooooooooooooooooooooooooooooooooooO",
"O+++++++++++++++++++++++++++X++++++++++++++++++++OOooooooooooooooooooooooooooooooooooooooooooooooooO",
"O++++++++++++++++++++++++++++++++++++++++++++++++OOooooooooooooooooooooooooooooooooooooooooooooooooO",
"O+++++++++++X++++++++++++++++++++++++++++++++++++OOooooooooooooooooooooooooooooooooooooooooooooooooO",
"O+++++++++++++X+X++++++++++++++++++++++++++++++++OOooooooooooooooooooooooooooooooooooooooooooooooooO",
"O++++++++++++++++++++++++++++++++++++++++++++++++OOooooooooooooooooooooooooooooooooooooooooooooooooO",
"OOOOOOOOOOOOOOOOOOOOOOOOOOOOOOOOOOOOOOOOOOOOOOOOOOOOOOOOOOOOOOOOOOOOOOOOOOOOOOOOOOOOOOOOOOOOOOOOOOOO"
};
