/* XPM */
static char *_dbdd12f7154437dc360994b371d1f82Keow2GKszgH7EJit[] = {
/* columns rows colors chars-per-pixel */
"100 100 91 1 ",
"  c #010101",
". c #0C0C0C",
"X c #141414",
"o c #1B1B1B",
"O c #232323",
"+ c #2C2C2C",
"@ c #353535",
"# c #393939",
"$ c #444444",
"% c #4B4B4B",
"& c #555555",
"* c #5C5C5C",
"= c #626262",
"- c #6A6A6A",
"; c gray44",
": c #7C7C7C",
"> c #848484",
", c #8B8B8B",
"< c gray58",
"1 c #9D9D9D",
"2 c #A9A394",
"3 c #ABA59C",
"4 c #AEAA9E",
"5 c #B3AD9D",
"6 c #A3A3A3",
"7 c #AEA9A1",
"8 c #ACACAC",
"9 c #B5AEA2",
"0 c #B7B0A6",
"q c #B9B3A4",
"w c #BCB8A7",
"e c #B7B2A9",
"r c #BAB5AA",
"t c #BEB9AA",
"y c #B5B5B5",
"u c #BCBCBC",
"i c #C2BCAB",
"p c #C3BDAD",
"a c #C4BDAC",
"s c #C4BEAC",
"d c #C6BFAD",
"f c #C5BEB0",
"g c #C4BEB1",
"h c #C5BEB3",
"j c #C5BFB5",
"k c #C6C0AE",
"l c #C6C1B2",
"z c #C6C1B6",
"x c #C8C1B6",
"c c #CBC5B5",
"v c #C8C5B7",
"b c #CFC8B7",
"n c #C5C1B8",
"m c #C8C3BB",
"M c #C8C5B8",
"N c #CAC7B8",
"B c #CCC5BA",
"V c #CCC6BB",
"C c #CFC9B8",
"Z c #CFCCBB",
"A c #D0C9B7",
"S c #D1CAB8",
"D c #D2CCBB",
"F c #D1CABC",
"G c #D5CEBC",
"H c #D7D0BF",
"J c #D8D1BF",
"K c gray76",
"L c #C3C3C3",
"P c #CDCDCD",
"I c #D7D1C0",
"U c #D7D1C7",
"Y c #D9D2C1",
"T c #DCD5C4",
"R c #DED7C5",
"E c #D9D4C8",
"W c gray82",
"Q c #D2D2D2",
"! c #DADADA",
"~ c #E0D9C7",
"^ c #E1DAC8",
"/ c #E2DBCA",
"( c #E4DDCB",
") c gray89",
"_ c #EAEAEA",
"` c #EFEFEF",
"' c #F1F1F1",
"] c gray96",
"[ c gray97",
"{ c gray98",
"} c #FDFDFD",
/* pixels */
"(((((((((((((((((#####((((((/(##R(R//RRR#@##@#@#######H#####H#T###R###########(((((((((((((((((#((((",
"(*********=******#####*#******###*#@*##*##@#@##@#####@@#@@#@#`]'@#]############}}}}}}}}}}}}}}}}###}(",
"(***=***=********=#####***####***###*&&##@@#@#@#@####@#@@#@#@#########@########}}#}}}}}}}}}}}}}##}}(",
"(=***********=****#####**#####*###@##@#&&@@lppiii#####idpd@@@@####@#####@########}}}}}##}}}}}##}}}}(",
"(********=*****=**#####***####&#@#@#@#zgdpiiittr00eee#rttsipipd####@##@#######}###}}}}##}}}}}}}}}}}(",
"(*****=************####&#*@##&@#####giipiq009####&###&90#59#etwpid@@@@@##@###{#}#}######}}}}}}}}}}}(",
"(**==************############&##@###tqe95&&&%####%%%%%%#%&%&5590riid@@@###@@{#########}}#}#}}#}}}}}(",
"(**********=**##############@@bjii##0&&&&%%%#%%%%%%%%%%%%%%%%###599@wii#####]#########}#}##}}}}}}}}(",
"(********=***=#####*#########zdiw0&&&%##%%%%%%%$$$$%$$######@#@###@590ti###@`@###}####}}}}}}}}}}}}}(",
"(*****=********####*######@Npit0&&&%%####$%$$$$$$$$$$$###@####@#####%550i##@@############}#}}}}}####",
"(=***#********#*########@bjiie&&&%%%%####$$#$####$####@###@@#@#@@@#@%%#####t#############}}}}}}}}}}(",
"(*=********=**####@#######tw&&%%%%$%$#####$########@####@#@#@@@$$$@#####@5##i####'########}}}}}#}}}(",
"(**********#######@########&&%%%%$#$$#@######@@#@@@@@@@@@@@@#@##@@#$$@#@%%##ri#@#############}}}}}}(",
"(*****#=*=*########@@####&&%%%%%$$########@@+@@@@++@+@@++@+@@@@@###$#@@#@%#@50i#####]#}{}#####}}}}#(",
"(**=**=*#*****###@#@bk#@#&%#%$$$#$######@@+@@+@++++@++@++@+@+@@+@@@@#$@@@%$##5#####`###{}####}}}}##(",
"(****##*******####@#####@##@@$$####@@++##+++++++++++++++@+@+++++++@@@@#@@$$%%%49i####@##}##}}}}#}##(",
"(***=#****#***###@bdiw##@#@#@#####@@@++++++++++++O++O+O++O+O+++O++@@@@@###$%%%%59##)_@#]{##}###}###(",
"(*********=***@@###pq######@##@@+++++++++O++OOO+O+OOOOOOOOOOOOOO+@@+@+@@###$$%%%59i##@##{##}##}###}(",
"(=********&**#@#b##@%#@@@@####@@+++++OO+OOOOOOOOOOOOOOOOOOOOoOOOOO+@++@@@@##$$$%%99##@#############(",
"(******=***##@#cc@#####@#@###++++++O+OOOOOOOOOOOOOOOOOOOOoOo+OoOoO+++@+++####$##%%5###@############(",
"(****=**######AA######@@@@@@@+++++OOOOOOOOOoOOOOOOOOOoOoOOOo+oooooo++++++@@+##$$%%%#########{######(",
"#******#######Ap#@#@#$$##@@++++OOOOOoOoOOooOOoo+O+o@OoOooooo+oooooooOOOO++@@##$$$%%######@#@########",
"#=*****#####@cft@#@##@##@@+++OOOOOooOooooooooooo++o%%%%%oo+OOoXooXooooOOO+@@@###$%%%################",
"(#=**##########&&@#@@@@#@@+O+OOOooOooooLLKoooooooooo$%$%$$$XoXXXXXXXooooOOO++@##$$$%$###############",
"###*#############@#@@@@@+++OOoooooooooXyy8oXoXXXXXXX$#$##$#o#XXXXXXXXoooOOO++@@@#$$%%@##############",
"(****####*&###@#@#@@@@@++++O+++ooXXXXX661XX..XXXXXXXX@@@#@@@@@X.XXXXXXoooOO++++@##$#################",
"#*#######@#########@@@@++OOooooXXXXX.X<,...........++++++.X@@+.....XXXoooOOOO+@@#@@$%%%#############",
"#*######&#B####%$$@##@+++OOoooXXXXX.>>;.... .  .  . . ..O+OOOO+...XXXXXoooOOO+++@@#$$%%%#pf#########",
"#*####**#GG####$%$@@@+@OOOooXXXXX....-=*. . .    .  . .oooOoOO......XXXooooOO++@@@##$%%%&rc####@####",
"(*****#########@@$#@#++OOoooXXX......&%% ##@          .XXXX. .. ...XXXXoXooOOOO++@#@$$%%&qd#########",
"(******&&Sf&&###@#@#@+OOOoooXX... .   $@++OOo       .     .    ....X.XXXoooooOO+++@##$$%%&tk@@######",
"##=###**HAd&&##@@@@++++OoooXXX.. .  $# OOoX.           .     .   ...XXXXooooOOOO+@@##$$%%&9df@#]####",
"##*########&&$%$#@@@+++OoooXX....       o.                       ...XXXXXooooOOO++@###$%$%&pc@#@##}#",
"####**#GAd*&###$@@@++++oooXX...       XX..                       ...X.XXXoXoooOO+++@@#$$%%*efn@@####",
"######*SCk&#######@++OOOooXXX. .     oX...                     . ....XXXXXoXoooOOO++###%%%&edz######",
"#######Cc&&@###$#@@++OOoooXX.....    ...                           ....XXXXooooOO++@@##$%%%&dd#@####",
"#########*##$%$$##+++OOOoXXXX.                                   .  ...XXXXXXoooO++++###$%%&wfC@####",
"############%%###+++OOoooXXX...                                    . ....XXXXXooOOO+@@#$$$%&ekm#@#@#",
"###########%$$$##@++OOooooXX.. .                                    . ..XX.XXXoooO+++@##$%%&0dj@@###",
"###########$%$##@+++OOO$$#XX...                                      .....XXXooooOO++###$%%%&d###@##",
"###########$$$##@+++%%oo$##X..  .                                      ....,<6XXoOO++####%$&&#######",
"###@#S#g*##$$$##@++O%%oo$##.. oX.                                    .. ....<18ooOOO++@#$$%%########",
"#####GSf&#%%%$##@++O%%oo##@X.OX..                                    . .. .X<18oooW++@@#$$$%&tdF@###",
"#####GSp&##%$$##+++OOoo$##+.OoXX.                                     . ....<18yoOW!++@##$$&&wlV@###",
"#####SFk&&%$$$#@@+OOoooX#@..OoX.                                     . . ..,<18yLOO++@@#$$$#&qdN@##@",
"###@#SF&*&%%$##@++OOOooXXX..ooXX.                                       ..>,18yuoOOO++@##$####dz##]#",
"#*###GS&&&%$$##@@++OoooXX...oo                                    O   ....X<68yooOO+++##$$%#########",
"#####DS*&&&%$##@++OOooXXXX..oX                                   XO  . ..><66yuKPOO++####$%%#######@",
"####@AA&#&%%$$#@++OOoooX... oX                                    O   ..:<16yuuPWOOO++###$%%########",
"##########%$$##+++OOoXX.X....                                        ...,<68yuoWOO+++@##$$%%#######@",
"######@##@%@$##@++OoooXX...  ..                                      ....XXXuLoooO++@@###%%######@##",
"#########&#@$$#@@+OOooXX.....                                        ...XXooooOOOOO++@##$$%##&zC@##~",
"######@##@%#$###++OOooXXX...                                       . ..XXXXooooOOO+++######%&tcG##*/",
"###########$$$##@+OOoooXX......                                     ....XooooooOO++++@######*pcG##&#",
"#########@#%$$##@++OooXXXX... .    o..                               .XXXXooooOOO+++@@######&kc#@###",
"/}#####@###%$$###++OOooXXXX....     ..                            . .XXXooooOoOOOO++@##$$$##&dz##*##",
"/#######@#@@%$###++OOoooXXXXX..     XX.                           ....XXXoooooOOO+++@####@%&*dc@***(",
"#######@@##@@@$##+++OOoooXXXX.....   oX..                          ..XXXoooooOoOOO+@@@##$%%&&###&*@#",
"#########&@#@@@##@+++OOooXXXX...   #+OoXX..                      . ...XXXooooOOO+O++@##$$%@######*##",
"(######S###@##@###@+OOOoooXoXXX...*$   XX .....                   ..XXXoXooooooOO++@@##$@@#@###@#@##",
"######UG#####@@@###@+OOOooooXoX...=&        ..                  . .X.XXoooooOoOOO+++@##$@@##@#b@*###",
"#######SS*&&@#@@$##+@@O+OoooXoXXX.-=.  #+O ooX                   ...XXXXXooXoooOO++@@##$@@@@#c##@###",
"########FS&&#@#@###+++++OoooXXXXX... .%$#@+OOo                .  ...XXXXXoXooooOOO++###$%@@#pc#@####",
"#########S&&##@#####@@+OOOOooooXXXX.. *%%###++OO           .   ....X.XXoXXXoooooO+++###%$@@#@c##@###",
"########G###&###@$@#@@+++++++OoXXXX.... .%$$$##@             .. ...XXXXXXXoXoooOO+++@##$%#@@@#@##@##",
"########Y###@####@##@@+@+@@++OooXX.X...  ..%  #        .  .    ..++@.XXXXXXoXoooOO++##$$%%q##@#@#@##",
"#}###########*&%%#$###@@@@++++XoXXXX.....  .. .          . ... ...@+@@##@XXXXoooOO++@#$%%&qd@@@@####",
"(}}##########&###%$$@#@@@++++oooOO.XX......  .  . .  . ..ooO.....X@@@@#@#oXXXooooo+@##$%%qrd@@@##@##",
"(}###########&&&%%#@$###+++OOooOOXX......  ..  .. . ooo..OOO...XX.X#@@@@@@XXoXooOoO+##$%%5pf@@@#@###",
"(}}#########A**&&#%%$####@@@OOo+oXXXX.............  .oOOOOO..X..X@@X##@##XXXXXXooOO@#$$$5ei@@@#@####",
"(}#######@##D*&*#&%%%$###@+++OOoooXX..... ...........OO+++++X.XXXXX#####oXoXXooooOO##$%@@w@@@@@#@#@#",
"(}}#########GD*##&%#@$$##@@+++OOooXXXX................+++@+@#XXXXXoXoooXoXoooooooOOO#$+2qw+@@@#@####",
"(}}}}#######G####&&%%%$####+++OOoooXXX..............++X+@@XXXX#XoXoooooOoooOoOOoOOO+$$29w@+@@@@#####",
"(}}}}#######U####*&&%%%$####@++OOOooXXXXXX.XXXXX.XXXXXX@#XXXo#$oooooooOOOoOOOOO+OOOO$+2qi+@@@@#@@###",
"(}###############&*&&%%%$####+++OOOoXoXXXXXXXXXXXXXXXXX###oooo$oooOOOOOOOOOOO++@OOO++25w+@&@@@@#####",
"(}################&&&&%%%$$###@++OOooooXXXXXXXXXXXXXXoo#$$oo$OoOOOOOO+O++++++@@OO++++4q+@@@@##@#@#*#",
"(}################*&&&%%%%$$@#@@++OOOOooooXoooXoooooXo$$$oo$%OOOO++++++++++@OOO+++++3qw@@@@@@#@#####",
"(#################A**&&&%$%$$#@@#+++OOOOoOooooooooooOo$$OoOO%OO++++++++@@###+++++++3@+@+@@@@#@##@*##",
"##}################D*&&&%%$%$$#@@+@++OOOOOOOOOOOOOOOOOOOOOO+++++++++@@@####+++++++7+i@+@@@@##@@*####",
"(}}}}}}}##########JAb**&&&#%$@@@@@@@@+++++OOOOOOOOO+OO++++++++@+@@@######$$$$+@+@7q@+@@@..@#@##*####",
"(}}}}}}}############FS*####%#@@@@####@+@++++++++++++++++++@+@+@#@@###@$$$$$%+@+@+qi@@+@@@@@#@##*#*#(",
"(}}}}}}}#############DC*&&#%@@@@$$$#####@@+@++@+++++@+@+@@@#######$$$$$$%%%%@+@@ig+@@@@#@#@*##@##=*#",
"#}}}}#}}############TIGA*#&##@@@@@@@$######@@@@##@@@#@@########$$$$%%$$%%%%&%@tfi@@@@@@@#&######**##",
"#}}}}}#}}}###########/HH####@#@@@%$%$$$$$#################$#$$$%%%%$%#@@&&&&tf@@@@@@@#@#@###@#######",
"(}}}}}}}}}}##############Z#@#@#@#%%$%$$%$$$$$#$##$#$$$$$$$$%%%%%%%%%&&#@#&tl@@c@@@@@@##@@*@#########",
"(##}}}}}##}}############I####@@##&&##%%%%%%$$%%$$$%$$%$%%%%%%%%%%&&&&&@#@zz#@@@@@@@#@#@#############",
"(}##}#}}}}}}###################@*&#@#@%%%%$%%%%%$%%%%%%%%%%%%%&&&&&&*&&#@####@@@##@@###@#@######***(",
"(}###}}}}}}################E###c*&@#&#&&&&&%%%%%%%%%%%%%%&%&&&&&*&***##GD@#@@##@#@###@*###########*(",
"(###}}}}}}############}}##@##@##SS#**&&*&&&&&&&&&&&&&&&&&&&*&*****#SFJ#@#@###@####*#############***(",
"(}##}}}}}}}############}######TUGGGDC******&*&&&&&&&&&&*********####Y####@#@###@#@#@############=**(",
"(}}}}}}}}}}############}#########UHHG#FFb*******************CFDY#############@###############*##***(",
"(}}}}}}}}}}########################TEIIIISH#GDD*******FSDHG##IYY#J#@@##########################****(",
"(}}}}}}}}}}################}####}}####RUHHH#HJJJYJYJHHYYGGI###G##############*###############******(",
"(}}}}}}}}}###########}##}##################/EUJJYYJHYYRH#####################################*****=(",
"(}}}}}}}}}}}}}}}#######################}############&*#######################################*#****(",
"(}}}}}}}}}}}}}}############################################################***####@#########**#**=*(",
"(}}}}}}#}}}}#}}}############################################################*#############*#*******(",
"(}}}}}}}}}}}}}###########################################################################**####**=*(",
"(}}}}}}}}}}}}}}}#############}############}######################@#######**##*########******=******(",
"((((((((((((((###############(((#(###############################################((((((((((((((((((("
};
