/* XPM */
static char *_137b3ed2b934696b43e02b4090a55a6qc9CtLPujJwuOOHO[] = {
/* columns rows colors chars-per-pixel */
"100 100 3 1 ",
"  c black",
". c yellow",
"X c #E4DDCB",
/* pixels */
"XXXXXXXXXXXXXXXXXXXXXXXXXXXXXXXXXXXXXXXXXXXXXXXXXXXXXXXXXXXXXXXXXXXXXXXXXXXXXXXXXXXXXXXXXXXXXXXXXXXX",
"X       ..........          ..........          ..........          ..........          .......... X",
"X      ..........          ..........          ..........          ..........          ..........  X",
"X     ..........          ..........          ..........          ..........          ..........   X",
"X    ..........          ..........          ..........          ..........          ..........    X",
"X   ..........          ..........          ..........          ..........          ..........     X",
"X  ..........          ..........          ..........          ..........          ..........      X",
"X ..........          ..........          ..........          ..........          ..........       X",
"X..........          ..........          ..........          ..........          ..........        X",
"X.........          ..........          ..........          ..........          ..........         X",
"X........          ..........          ..........          ..........          ..........          X",
"X.......          ..........          ..........          ..........          ..........          .X",
"X......          ..........          ..........          ..........          ..........          ..X",
"X.....          ..........          ..........          ..........          ..........          ...X",
"X....          ..........          ..........          ..........          ..........          ....X",
"X...          ..........          ..........          ..........          ..........          .....X",
"X..          ..........          ..........          ..........          ..........          ......X",
"X.          ..........          ..........          ..........          ..........          .......X",
"X          ..........          ..........          ..........          ..........          ........X",
"X         ..........          ..........          ..........          ..........          .........X",
"X        ..........          ..........          ..........          ..........          ..........X",
"X       ..........          ..........          ..........          ..........          .......... X",
"X      ..........          ..........          ..........          ..........          ..........  X",
"X     ..........          ..........          ..........          ..........          ..........   X",
"X    ..........          ..........          ..........          ..........          ..........    X",
"X   ..........          ..........          ..........          ..........          ..........     X",
"X  ..........          ..........          ..........          ..........          ..........      X",
"X ..........          ..........          ..........          ..........          ..........       X",
"X..........          ..........          ..........          ..........          ..........        X",
"X.........          ..........          ..........          ..........          ..........         X",
"X........          ..........          ..........          ..........          ..........          X",
"X.......          ..........          ..........          ..........          ..........          .X",
"X......          ..........          ..........          ..........          ..........          ..X",
"X.....          ..........          ..........          ..........          ..........          ...X",
"X....          ..........          ..........          ..........          ..........          ....X",
"X...          ..........          ..........          ..........          ..........          .....X",
"X..          ..........          ..........          ..........          ..........          ......X",
"X.          ..........          ..........          ..........          ..........          .......X",
"X          ..........          ..........          ..........          ..........          ........X",
"X         ..........          ..........          ..........          ..........          .........X",
"X        ..........          ..........          ..........          ..........          ..........X",
"X       ..........          ..........          ..........          ..........          .......... X",
"X      ..........          ..........          ..........          ..........          ..........  X",
"X     ..........          ..........          ..........          ..........          ..........   X",
"X    ..........          ..........          ..........          ..........          ..........    X",
"X   ..........          ..........          ..........          ..........          ..........     X",
"X  ..........          ..........          ..........          ..........          ..........      X",
"X ..........          ..........          ..........          ..........          ..........       X",
"X..........          ..........          ..........          ..........          ..........        X",
"X.........          ..........          ..........          ..........          ..........         X",
"X........          ..........          ..........          ..........          ..........          X",
"X.......          ..........          ..........          ..........          ..........          .X",
"X......          ..........          ..........          ..........          ..........          ..X",
"X.....          ..........          ..........          ..........          ..........          ...X",
"X....          ..........          ..........          ..........          ..........          ....X",
"X...          ..........          ..........          ..........          ..........          .....X",
"X..          ..........          ..........          ..........          ..........          ......X",
"X.          ..........          ..........          ..........          ..........          .......X",
"X          ..........          ..........          ..........          ..........          ........X",
"X         ..........          ..........          ..........          ..........          .........X",
"X        ..........          ..........          ..........          ..........          ..........X",
"X       ..........          ..........          ..........          ..........          .......... X",
"X      ..........          ..........          ..........          ..........          ..........  X",
"X     ..........          ..........          ..........          ..........          ..........   X",
"X    ..........          ..........          ..........          ..........          ..........    X",
"X   ..........          ..........          ..........          ..........          ..........     X",
"X  ..........          ..........          ..........          ..........          ..........      X",
"X ..........          ..........          ..........          ..........          ..........       X",
"X..........          ..........          ..........          ..........          ..........        X",
"X.........          ..........          ..........          ..........          ..........         X",
"X........          ..........          ..........          ..........          ..........          X",
"X.......          ..........          ..........          ..........          ..........          .X",
"X......          ..........          ..........          ..........          ..........          ..X",
"X.....          ..........          ..........          ..........          ..........          ...X",
"X....          ..........          ..........          ..........          ..........          ....X",
"X...          ..........          ..........          ..........          ..........          .....X",
"X..          ..........          ..........          ..........          ..........          ......X",
"X.          ..........          ..........          ..........          ..........          .......X",
"X          ..........          ..........          ..........          ..........          ........X",
"X         ..........          ..........          ..........          ..........          .........X",
"X        ..........          ..........          ..........          ..........          ..........X",
"X       ..........          ..........          ..........          ..........          .......... X",
"X      ..........          ..........          ..........          ..........          ..........  X",
"X     ..........          ..........          ..........          ..........          ..........   X",
"X    ..........          ..........          ..........          ..........          ..........    X",
"X   ..........          ..........          ..........          ..........          ..........     X",
"X  ..........          ..........          ..........          ..........          ..........      X",
"X ..........          ..........          ..........          ..........          ..........       X",
"X..........          ..........          ..........          ..........          ..........        X",
"X.........          ..........          ..........          ..........          ..........         X",
"X........          ..........          ..........          ..........          ..........          X",
"X.......          ..........          ..........          ..........          ..........          .X",
"X......          ..........          ..........          ..........          ..........          ..X",
"X.....          ..........          ..........          ..........          ..........          ...X",
"X....          ..........          ..........          ..........          ..........          ....X",
"X...          ..........          ..........          ..........          ..........          .....X",
"X..          ..........          ..........          ..........          ..........          ......X",
"X.          ..........          ..........          ..........          ..........          .......X",
"X          ..........          ..........          ..........          ..........          ........X",
"XXXXXXXXXXXXXXXXXXXXXXXXXXXXXXXXXXXXXXXXXXXXXXXXXXXXXXXXXXXXXXXXXXXXXXXXXXXXXXXXXXXXXXXXXXXXXXXXXXXX"
};
