/* XPM */
static char *_da46acf26d04387ca0b1985b2c0a452eNLVQkyn8FlikORD[] = {
/* columns rows colors chars-per-pixel */
"100 100 10 1 ",
"  c #1D1D1D",
". c #5D5D5D",
"X c #9E7000",
"o c #C18900",
"O c #FFB500",
"+ c #989252",
"@ c #EBE2B5",
"# c #E4DDCB",
"$ c #FFFCE3",
"% c white",
/* pixels */
"####################################################################################################",
"#................................................##%%%%%%%%%%%%%%%%%%%%%%%%%%%%%%%%%%%%%%%%%%%%%%%%#",
"#................................................##%%%%%%%%%%%%%%%%%%%%%%%%%%%%%%%%%%%%%%%%%%%%%%%%#",
"#................................................##%%%%%%%%%%%%%%%%%%%%%%%%%%%%%%%%%%%%%%%%%%%%%%%%#",
"#...........................................+++++@@$$$$$%%%%%%%%%%%%%%%%%%%%%%%%%%%%%%%%%%%%%%%%%%%#",
"#.....................................+++++++++++@@$$$$$$$$$$$%%%%%%%%%%%%%%%%%%%%%%%%%%%%%%%%%%%%%#",
"#..................................++++++++++++++@@$$$$$$$$$$$$$$%%%%%%%%%%%%%%%%%%%%%%%%%%%%%%%%%%#",
"#...............................+++++++++++++++++@@$$$$$$$$$$$$$$$$$%%%%%%%%%%%%%%%%%%%%%%%%%%%%%%%#",
"#.............................+++++++++++++++++++@@$$$$$$$$$$$$$$$$$$$%%%%%%%%%%%%%%%%%%%%%%%%%%%%%#",
"#...........................+++++++++++++++++++++@@$$$$$$$$$$$$$$$$$$$$$%%%%%%%%%%%%%%%%%%%%%%%%%%%#",
"#.........................+++++++++++++++++++++++@@$$$$$$$$$$$$$$$$$$$$$$$%%%%%%%%%%%%%%%%%%%%%%%%%#",
"#........................++++++++++++++++++++++++@@$$$$$$$$$$$$$$$$$$$$$$$$%%%%%%%%%%%%%%%%%%%%%%%%#",
"#......................++++++++++++++++++++++++++@@$$$$$$$$$$$$$$$$$$$$$$$$$$%%%%%%%%%%%%%%%%%%%%%%#",
"#.....................+++++++++++++++++++++++++++@@$$$$$$$$$$$$$$$$$$$$$$$$$$$%%%%%%%%%%%%%%%%%%%%%#",
"#....................++++++++++++++++++++++++++++@@$$$$$$$$$$$$$$$$$$$$$$$$$$$$%%%%%%%%%%%%%%%%%%%%#",
"#..................++++++++++++++++++++++++++++++@@$$$$$$$$$$$$$$$$$$$$$$$$$$$$$$%%%%%%%%%%%%%%%%%%#",
"#.................+++++++++++++++++++++++++++++++@@$$$$$$$$$$$$$$$$$$$$$$$$$$$$$$$%%%%%%%%%%%%%%%%%#",
"#................++++++++++++++++++++++++++++++++@@$$$$$$$$$$$$$$$$$$$$$$$$$$$$$$$$%%%%%%%%%%%%%%%%#",
"#...............+++++++++++++++++++++++++++++++++@@$$$$$$$$$$$$$$$$$$$$$$$$$$$$$$$$$%%%%%%%%%%%%%%%#",
"#..............++++++++++++++++++++++++++++++++++@@$$$$$$$$$$$$$$$$$$$$$$$$$$$$$$$$$$%%%%%%%%%%%%%%#",
"#..............+++++++++++++++++++++++++++++++             $$$$$$$$$$$$$$$$$$$$$$$$$$%%%%%%%%%%%%%%#",
"#.............++++++++++++++++++++++++++++                     $$$$$$$$$$$$$$$$$$$$$$$%%%%%%%%%%%%%#",
"#............+++++++++++++++++++++++++++        OOOOOOOOO        $$$$$$$$$$$$$$$$$$$$$$%%%%%%%%%%%%#",
"#...........++++++++++++++++++++++++++      OOOOOOOOOOOOOOOOO      $$$$$$$$$$$$$$$$$$$$$%%%%%%%%%%%#",
"#...........+++++++++++++++++++++++++     OOOOOOOOOOOOOOOOOOOOO     $$$$$$$$$$$$$$$$$$$$%%%%%%%%%%%#",
"#..........++++++++++++++++++++++++     OOOOOOOOOOOOOOOOOOOOOOOOO     $$$$$$$$$$$$$$$$$$$%%%%%%%%%%#",
"#.........++++++++++++++++++++++++    OOOOOOOOOOOOOOOOOOOOOOOOOOOOO    $$$$$$$$$$$$$$$$$$$%%%%%%%%%#",
"#.........+++++++++++++++++++++++    OOOOOOOOXXXXXXXOOOOOOOOOOOOOOOO    $$$$$$$$$$$$$$$$$$%%%%%%%%%#",
"#........+++++++++++++++++++++++    OOOOOOXXXXXXXXXXXXXXXOOOOOOOOOOOO    $$$$$$$$$$$$$$$$$$%%%%%%%%#",
"#........++++++++++++++++++++++    OOOOOOXXXXXXXXXXXXXXXXXXOOOOOOOOOOO    $$$$$$$$$$$$$$$$$%%%%%%%%#",
"#.......++++++++++++++++++++++    OOOOOOXXXXXXXXXXXXXXXXXXXXXOOOOOOOOOO    $$$$$$$$$$$$$$$$$%%%%%%%#",
"#.......+++++++++++++++++++++    OOOOOOXXXXXXXXXXXXXXXXXXXXXXXOOOOOOOOOO   $$$$$$$$$$$$$$$$$%%%%%%%#",
"#......+++++++++++++++++++++    OOOOOOOXXXXXXXXOOOXXXXXXXXXXXXXOOOOOOOOOO   $$$$$$$$$$$$$$$$$%%%%%%#",
"#......++++++++++++++++++++    OOOOOOOXXXXXXOOOOOOOOOOOXXXXXXXXOOOOOOOOOOO   $$$$$$$$$$$$$$$$%%%%%%#",
"#......++++++++++++++++++++    OOOOOOOXXXXXXOOOOOOOOOOOOOXXXXXXXOOOOOOOOOO   $$$$$$$$$$$$$$$$%%%%%%#",
"#.....++++++++++++++++++++    OOOOOOOXXXXXXOOOOOOOOOOOOOOOXXXXXXOOOOOOOOOOO   $$$$$$$$$$$$$$$$%%%%%#",
"#.....+++++++++++++++++++     OOOOOOOXXXXXXOOOOOOOOOOOOOOOOXXXXXOOOOOOOOOOO   $$$$$$$$$$$$$$$$%%%%%#",
"#.....+++++++++++++++++++    OOOOOOOOXXXXXOOOOOOOOOOOOOOOOOXXXXXXOOOOOOOOOOO   $$$$$$$$$$$$$$$%%%%%#",
"#....+++++++++++++++++++     OOOOOOOOXXXXXOOOOOOOOOOOOOOOOOXXXXXXOOOOOOOOOOO   $$$$$$$$$$$$$$$$%%%%#",
"#....+++++++++++++++++++    OOOOOOOOOXXXXXOOOOOOOOOOOOOOOOOOXXXXXOOOOOOOOOOOO  $$$$$$$$$$$$$$$$%%%%#",
"#....++++++++++++++++++     OOOOOOOOOXXXXXOOOOOOOOOOOOOOOOOOXXXXXOOOOOOOOOOOO  $$$$$$$$$$$$$$$$%%%%#",
"#....++++++++++++++++++     OOOOOOOOXXXXXXOOOOOOOOOOOOOOOOOOXXXXXXOOOOOOOOOOO   $$$$$$$$$$$$$$$%%%%#",
"#....++++++++++++++++++     OOOOOOOOXXXXXXOOOOOOOOOOOOOOOOOOXXXXXXOOOOOOOOOOO   $$$$$$$$$$$$$$$%%%%#",
"#....++++++++++++++++++    OOOOOOOOOXXXXXOOOOOOOOOOOOOOOOOOOOXXXXXOOOOOOOOOOOO  $$$$$$$$$$$$$$$%%%%#",
"#...++++++++++++++++++     OOOOOOOOOXXXXXOOOOOOOOOOOOOOOOOOOOOXXXOOOOOOOOOOOOO  $$$$$$$$$$$$$$$$%%%#",
"#...++++++++++++++++++     OOOOOOOOOXXXXXOOOOOOOOOOOOOOOOOOOOOOOOOOOOOOOOOOOOO  $$$$$$$$$$$$$$$$%%%#",
"#...++++++++++++++++++  o  OOOOOOOOOXXXXXOOOOOOOOOOOOOOOOOOOOOOOOOOOOOOOOOOOOO  $$$$$$$$$$$$$$$$%%%#",
"#...++++++++++++++++++  o  OOOOOOOOOXXXXXOOOOOOOOOOOOOOOOOOOOOOOOOOOOOOOOOOOOO  $$$$$$$$$$$$$$$$%%%#",
"#...++++++++++++++++++  o  OOOOOOOOOXXXXXOOOOOOOOOOOXXXXXXXXOOOOOOOOOOOOOOOOOO  $$$$$$$$$$$$$$$$%%%#",
"####@@@@@@@@@@@@@@@@@@  o  OOOOOOOOOXXXXXOOOOOOOOOOXXXXXXXXXXXXXXOOOOOOOOOOOOO  @@@@@@@@@@@@@@@@####",
"####@@@@@@@@@@@@@@@@@@  o  OOOOOOOOOXXXXXOOOOOOOOOOXXXXXXXXXXXXXXXOOOOOOOOOOOO  @@@@@@@@@@@@@@@@####",
"#%%%$$$$$$$$$$$$$$$$$$  o  OOOOOOOOOXXXXXOOOOOOOOOOXXXXXXXXXXXXXXXXOOOOOOOOOOO  ++++++++++++++++...#",
"#%%%$$$$$$$$$$$$$$$$$$  o   OOOOOOOOXXXXXOOOOOOOOOOOXXXXXXXXXXXXXXXOOOOOOOOOO   ++++++++++++++++...#",
"#%%%$$$$$$$$$$$$$$$$$$  o   OOOOOOOOXXXXXOOOOOOOOOOOOOOXXXXXXXXXXXXXOOOOOOOOO   ++++++++++++++++...#",
"#%%%$$$$$$$$$$$$$$$$$$  oo  OOOOOOOOXXXXXOOOOOOOOOOOOOOXXXXXOOXXXXXXOOOOOOOOO  +++++++++++++++++...#",
"#%%%$$$$$$$$$$$$$$$$$$   o  OOOOOOOOXXXXXOOOOOOOOOOOOOOXXXXXOOOXXXXXOOOOOOOOO  +++++++++++++++++...#",
"#%%%%$$$$$$$$$$$$$$$$$   o   OOOOOOOXXXXXXOOOOOOOOOOOOXXXXXXOOOXXXXXOOOOOOOO   ++++++++++++++++....#",
"#%%%%$$$$$$$$$$$$$$$$$$  o   OOOOOOOXXXXXXOOOOOOOOOOOOXXXXXXOOOXXXXXOOOOOOOO   ++++++++++++++++....#",
"#%%%%$$$$$$$$$$$$$$$$$$  oo   OOOOOOOXXXXXXOOOOOOOOOOXXXXXXOOOOOXXXOOOOOOOO   +++++++++++++++++....#",
"#%%%%$$$$$$$$$$$$$$$$$$   o   OOOOOOOXXXXXXXOOOOOOOOXXXXXXXOOOOOOOOOOOOOOOO   +++++++++++++++++....#",
"#%%%%$$$$$$$$$$$$$$$$$$   oo   OOOOOOOXXXXXXXXXXXXXXXXXXXXOOOOOOOOOOOOOOOO   ++++++++++++++++++....#",
"#%%%%$$$$$$$$$$$$$$$$$$$   o   OOOOOOOXXXXXXXXXXXXXXXXXXXOOOOOOOOOOOOOOOOO   ++++++++++++++++++....#",
"#%%%%%$$$$$$$$$$$$$$$$$$   oo   OOOOOOOXXXXXXXXXXXXXXXXXOOOOOOOOOOOOOOOOO   ++++++++++++++++++.....#",
"#%%%%%$$$$$$$$$$$$$$$$$$$   oo   OOOOOOOXXXXXXXXXXXXXXXOOOOOOOOOOOOOOOOO   +++++++++++++++++++.....#",
"#%%%%%$$$$$$$$$$$$$$$$$$$   oo    OOOOOOOOXXXXXXXXXXXXOOOOOOOOOOOOOOOOO    +++++++++++++++++++.....#",
"#%%%%%%$$$$$$$$$$$$$$$$$$$   oo    OOOOOOOOOOOOXXXXOOOOOOOOOOOOOOOOOOO    +++++++++++++++++++......#",
"#%%%%%%$$$$$$$$$$$$$$$$$$$$   oo    OOOOOOOOOOOOOOOOOOOOOOOOOOOOOOOOO    ++++++++++++++++++++......#",
"#%%%%%%$$$$$$$$$$$$$$$$$$$$    oo    OOOOOOOOOOOOOOOOOOOOOOOOOOOOOOO    +++++++++++++++++++++......#",
"#%%%%%%%$$$$$$$$$$$$$$$$$$$$    oo    OOOOOOOOOOOOOOOOOOOOOOOOOOOOO    +++++++++++++++++++++.......#",
"#%%%%%%%$$$$$$$$$$$$$$$$$$$$$    oo     OOOOOOOOOOOOOOOOOOOOOOOOO     ++++++++++++++++++++++.......#",
"#%%%%%%%%$$$$$$$$$$$$$$$$$$$$$    ooo     OOOOOOOOOOOOOOOOOOOOO      ++++++++++++++++++++++........#",
"#%%%%%%%%$$$$$$$$$$$$$$$$$$$$$$    ooo      OOOOOOOOOOOOOOOOO       +++++++++++++++++++++++........#",
"#%%%%%%%%%$$$$$$$$$$$$$$$$$$$$$$     ooo        OOOOOOOOO          +++++++++++++++++++++++.........#",
"#%%%%%%%%%$$$$$$$$$$$$$$$$$$$$$$$$     ooo                       +++++++++++++++++++++++++.........#",
"#%%%%%%%%%%$$$$$$$$$$$$$$$$$$$$$$$$      ooooo                  +++++++++++++++++++++++++..........#",
"#%%%%%%%%%%%$$$$$$$$$$$$$$$$$$$$$$$$$        ooooooooo        ++++++++++++++++++++++++++...........#",
"#%%%%%%%%%%%$$$$$$$$$$$$$$$$$$$$$$$$$$$                     ++++++++++++++++++++++++++++...........#",
"#%%%%%%%%%%%%$$$$$$$$$$$$$$$$$$$$$$$$$$$$$$             +++++++++++++++++++++++++++++++............#",
"#%%%%%%%%%%%%%$$$$$$$$$$$$$$$$$$$$$$$$$$$$$$$$$$$@@+++++++++++++++++++++++++++++++++++.............#",
"#%%%%%%%%%%%%%%$$$$$$$$$$$$$$$$$$$$$$$$$$$$$$$$$$@@++++++++++++++++++++++++++++++++++..............#",
"#%%%%%%%%%%%%%%$$$$$$$$$$$$$$$$$$$$$$$$$$$$$$$$$$@@++++++++++++++++++++++++++++++++++..............#",
"#%%%%%%%%%%%%%%%$$$$$$$$$$$$$$$$$$$$$$$$$$$$$$$$$@@+++++++++++++++++++++++++++++++++...............#",
"#%%%%%%%%%%%%%%%%$$$$$$$$$$$$$$$$$$$$$$$$$$$$$$$$@@++++++++++++++++++++++++++++++++................#",
"#%%%%%%%%%%%%%%%%%$$$$$$$$$$$$$$$$$$$$$$$$$$$$$$$@@+++++++++++++++++++++++++++++++.................#",
"#%%%%%%%%%%%%%%%%%%$$$$$$$$$$$$$$$$$$$$$$$$$$$$$$@@++++++++++++++++++++++++++++++..................#",
"#%%%%%%%%%%%%%%%%%%%%$$$$$$$$$$$$$$$$$$$$$$$$$$$$@@++++++++++++++++++++++++++++....................#",
"#%%%%%%%%%%%%%%%%%%%%%$$$$$$$$$$$$$$$$$$$$$$$$$$$@@+++++++++++++++++++++++++++.....................#",
"#%%%%%%%%%%%%%%%%%%%%%%$$$$$$$$$$$$$$$$$$$$$$$$$$@@++++++++++++++++++++++++++......................#",
"#%%%%%%%%%%%%%%%%%%%%%%%%$$$$$$$$$$$$$$$$$$$$$$$$@@++++++++++++++++++++++++........................#",
"#%%%%%%%%%%%%%%%%%%%%%%%%%$$$$$$$$$$$$$$$$$$$$$$$@@+++++++++++++++++++++++.........................#",
"#%%%%%%%%%%%%%%%%%%%%%%%%%%%$$$$$$$$$$$$$$$$$$$$$@@+++++++++++++++++++++...........................#",
"#%%%%%%%%%%%%%%%%%%%%%%%%%%%%%$$$$$$$$$$$$$$$$$$$@@+++++++++++++++++++.............................#",
"#%%%%%%%%%%%%%%%%%%%%%%%%%%%%%%%$$$$$$$$$$$$$$$$$@@+++++++++++++++++...............................#",
"#%%%%%%%%%%%%%%%%%%%%%%%%%%%%%%%%%%$$$$$$$$$$$$$$@@++++++++++++++..................................#",
"#%%%%%%%%%%%%%%%%%%%%%%%%%%%%%%%%%%%%%$$$$$$$$$$$@@+++++++++++.....................................#",
"#%%%%%%%%%%%%%%%%%%%%%%%%%%%%%%%%%%%%%%%%%%%$$$$$@@+++++...........................................#",
"#%%%%%%%%%%%%%%%%%%%%%%%%%%%%%%%%%%%%%%%%%%%%%%%%##................................................#",
"#%%%%%%%%%%%%%%%%%%%%%%%%%%%%%%%%%%%%%%%%%%%%%%%%##................................................#",
"#%%%%%%%%%%%%%%%%%%%%%%%%%%%%%%%%%%%%%%%%%%%%%%%%##................................................#",
"####################################################################################################"
};
